<svg width="132" height="162" viewBox="0 0 132 162" fill="none" xmlns="http://www.w3.org/2000/svg">
<path d="M15.1381 155.924L4.54699 141.979V152.938C4.54699 153.297 4.58395 153.586 4.65789 153.801C4.73182 154.009 4.82886 154.173 4.95363 154.285C5.07377 154.401 5.22164 154.483 5.39724 154.526C5.56821 154.561 5.74843 154.578 5.93326 154.578H7.07925V155.924H0V154.578H1.1275C1.32158 154.578 1.5018 154.561 1.66353 154.526C1.83451 154.483 1.98237 154.401 2.10714 154.285C2.24115 154.173 2.34743 154.009 2.42136 153.801C2.4953 153.586 2.53226 153.297 2.53226 152.938V140.736C2.53226 140.391 2.48606 140.123 2.40288 139.925C2.32894 139.718 2.22728 139.562 2.10714 139.459C1.98237 139.355 1.83451 139.286 1.66353 139.252C1.48794 139.208 1.31234 139.183 1.1275 139.183H0V137.854H6.02568L15.6002 150.488V140.736C15.6002 140.391 15.554 140.123 15.4708 139.925C15.3969 139.718 15.2952 139.562 15.1751 139.459C15.0503 139.355 14.9025 139.286 14.7315 139.252C14.5559 139.208 14.3803 139.183 14.1955 139.183H13.068V137.854H20.1472V139.183H19.0012C18.8164 139.183 18.6362 139.208 18.4652 139.252C18.3035 139.286 18.1556 139.364 18.0216 139.476C17.8968 139.592 17.7998 139.761 17.7259 139.976C17.6612 140.184 17.6334 140.468 17.6334 140.822V155.924H15.1381Z" fill="white"/>
<path d="M22.9294 138.25C22.9294 137.931 22.9848 137.655 23.0957 137.422C23.2158 137.193 23.3822 137.008 23.5948 136.87C23.8027 136.723 24.043 136.611 24.3156 136.542C24.5975 136.464 24.9071 136.421 25.2398 136.421C25.5448 136.421 25.8405 136.464 26.127 136.542C26.4089 136.611 26.6538 136.723 26.8664 136.87C27.0743 137.008 27.2407 137.193 27.3654 137.422C27.4994 137.655 27.5688 137.931 27.5688 138.25C27.5688 138.561 27.4994 138.833 27.3654 139.062C27.2407 139.295 27.0743 139.484 26.8664 139.631C26.6538 139.782 26.4089 139.899 26.127 139.976C25.8405 140.045 25.5448 140.08 25.2398 140.08C24.9071 140.08 24.5975 140.045 24.3156 139.976C24.043 139.899 23.8027 139.782 23.5948 139.631C23.3822 139.484 23.2158 139.295 23.0957 139.062C22.9848 138.833 22.9294 138.561 22.9294 138.25ZM21.3767 154.578C21.5847 154.578 21.8018 154.561 22.0237 154.526C22.2455 154.483 22.4488 154.401 22.6336 154.285C22.8277 154.172 22.9894 154.009 23.1142 153.801C23.2482 153.586 23.3175 153.297 23.3175 152.938V145.241C23.3175 144.908 23.2482 144.645 23.1142 144.447C22.9894 144.24 22.8277 144.08 22.6336 143.963C22.4488 143.851 22.2362 143.782 22.0052 143.756C21.7834 143.722 21.5708 143.704 21.3767 143.704H21.0625V142.341H27.4394V152.938C27.4394 153.297 27.4994 153.586 27.6242 153.801C27.7444 154.009 27.9015 154.172 28.0863 154.285C28.2804 154.401 28.4929 154.483 28.7147 154.526C28.9458 154.561 29.163 154.578 29.3617 154.578H29.6759V155.924H21.0625V154.578H21.3767Z" fill="white"/>
<path d="M47.3887 155.924H47.019C46.0209 155.924 45.1799 155.906 44.5052 155.872C43.8398 155.829 43.2668 155.73 42.7862 155.579C42.3056 155.432 41.8851 155.207 41.5293 154.905C41.1689 154.608 40.8177 154.198 40.4758 153.68L38.0544 150.124L36.9823 150.884V152.938C36.9823 153.296 37.0424 153.585 37.1672 153.801C37.2873 154.008 37.4444 154.172 37.6293 154.284C37.8233 154.401 38.0359 154.483 38.2577 154.526C38.4888 154.56 38.7059 154.578 38.9046 154.578H39.2189V155.924H30.6055V154.578H30.9197C31.1276 154.578 31.3448 154.56 31.5666 154.526C31.7884 154.483 31.9917 154.401 32.1766 154.284C32.3707 154.172 32.5324 154.008 32.6572 153.801C32.7912 153.585 32.8605 153.296 32.8605 152.938V139.562C32.8605 139.229 32.7912 138.966 32.6572 138.768C32.5324 138.561 32.3707 138.405 32.1766 138.302C31.9917 138.189 31.7792 138.112 31.5481 138.077C31.3263 138.043 31.1138 138.025 30.9197 138.025H30.6055V136.679H36.9823V146.448C36.9823 146.681 36.9685 146.949 36.9454 147.259C36.9315 147.561 36.9176 147.842 36.9084 148.105C36.8807 148.429 36.8576 148.757 36.8345 149.089L40.254 145.516C40.5589 145.205 40.7576 144.96 40.8454 144.774C40.9425 144.58 40.9933 144.424 40.9933 144.308C40.9933 144.092 40.8685 143.924 40.6236 143.807C40.3741 143.682 40.0321 143.618 39.5885 143.618V142.34H46.409V143.618C45.7806 143.618 45.1614 143.79 44.5607 144.135C43.9553 144.481 43.2945 145.029 42.5829 145.775L40.8824 147.587L44.4867 152.61C44.9534 153.279 45.4294 153.775 45.91 154.094C46.3998 154.418 46.8619 154.578 47.2962 154.578H47.3887V155.924Z" fill="white"/>
<path d="M52.8197 152.163C52.8197 152.888 52.9399 153.436 53.1894 153.803C53.4343 154.161 53.8225 154.338 54.3539 154.338C54.7328 154.338 55.0794 154.265 55.389 154.114C55.7078 153.954 55.9805 153.734 56.2023 153.458C56.4333 153.173 56.6089 152.832 56.7198 152.439C56.84 152.038 56.9046 151.589 56.9046 151.093V149.195L55.6847 149.264C55.1395 149.289 54.6866 149.367 54.3169 149.505C53.9473 149.643 53.6515 149.833 53.4297 150.075C53.2079 150.308 53.0462 150.593 52.9491 150.938C52.8613 151.283 52.8197 151.693 52.8197 152.163ZM55.2226 143.568C54.8761 143.568 54.5849 143.637 54.3539 143.775C54.1182 143.913 53.9288 144.103 53.7809 144.345C53.6423 144.586 53.5452 144.875 53.4852 145.208C53.4343 145.544 53.4112 145.911 53.4112 146.312C52.1913 146.312 51.2717 146.187 50.6572 145.932C50.0518 145.669 49.7515 145.233 49.7515 144.621C49.7515 144.15 49.8901 143.753 50.1766 143.43C50.4723 143.098 50.8697 142.826 51.378 142.619C51.8956 142.411 52.487 142.265 53.1525 142.17C53.8271 142.079 54.5572 142.032 55.3335 142.032C56.2808 142.032 57.108 142.109 57.8103 142.256C58.522 142.407 59.1134 142.653 59.5848 142.998C60.0654 143.335 60.4212 143.775 60.6568 144.327C60.9017 144.871 61.0265 145.535 61.0265 146.329V152.785C61.0265 153.13 61.0496 153.419 61.1004 153.648C61.1605 153.881 61.2529 154.062 61.3777 154.2C61.4978 154.338 61.6642 154.437 61.8768 154.493C62.0986 154.554 62.3573 154.58 62.6531 154.58H62.764V155.926H57.7179L57.1449 154.183H56.9046C56.6089 154.519 56.3224 154.813 56.0544 155.063C55.7956 155.317 55.5091 155.529 55.2041 155.701C54.9084 155.865 54.5665 155.978 54.1875 156.047C53.8179 156.124 53.3789 156.167 52.8752 156.167C52.2699 156.167 51.7107 156.085 51.1932 155.926C50.6756 155.766 50.2228 155.512 49.8439 155.166C49.4603 154.821 49.16 154.398 48.9382 153.889C48.7164 153.371 48.6055 152.763 48.6055 152.06C48.6055 150.679 49.1091 149.661 50.1211 149.005C51.1285 148.349 52.6534 147.995 54.6866 147.935L56.9046 147.848V146.45C56.9046 146.036 56.8862 145.652 56.8492 145.294C56.8122 144.94 56.7383 144.634 56.6274 144.379C56.5165 144.129 56.3409 143.93 56.1098 143.792C55.888 143.646 55.5923 143.568 55.2226 143.568Z" fill="white"/>
<path d="M74.9884 155.925V147.589C74.9884 147.049 74.9422 146.566 74.859 146.139C74.7851 145.716 74.6603 145.358 74.4893 145.069C74.3137 144.784 74.0873 144.564 73.8054 144.413C73.5328 144.266 73.2001 144.189 72.8073 144.189C72.3637 144.189 71.9848 144.301 71.6798 144.517C71.3841 144.724 71.1438 145.008 70.9589 145.362C70.7833 145.72 70.654 146.135 70.5708 146.605C70.4968 147.08 70.4599 147.58 70.4599 148.107V152.939C70.4599 153.284 70.5015 153.569 70.5893 153.785C70.6863 154.005 70.8157 154.173 70.9774 154.286C71.1484 154.402 71.3517 154.484 71.5874 154.527C71.8323 154.562 72.1095 154.579 72.4191 154.579H72.4931V155.925H64.1569V154.579H64.2124C64.5174 154.579 64.8039 154.562 65.0626 154.527C65.3214 154.484 65.5432 154.402 65.7281 154.286C65.9221 154.16 66.07 153.984 66.1717 153.751C66.2826 153.522 66.338 153.215 66.338 152.836V139.563C66.338 139.231 66.2687 138.968 66.1347 138.769C66.0099 138.562 65.8482 138.407 65.6541 138.303C65.4693 138.191 65.2567 138.113 65.0257 138.079C64.8039 138.044 64.5913 138.027 64.3972 138.027H64.083V136.681H70.4599V140.858C70.4599 141.181 70.446 141.531 70.4229 141.91C70.3952 142.29 70.3721 142.644 70.349 142.963C70.312 143.343 70.275 143.718 70.2381 144.085H70.4784C70.7464 143.602 71.0375 143.231 71.3471 142.963C71.6521 142.687 71.9802 142.48 72.3267 142.342C72.6687 142.204 73.0337 142.117 73.4173 142.083C73.7962 142.048 74.1982 142.031 74.6187 142.031C75.3211 142.031 75.9495 142.13 76.504 142.325C77.0586 142.51 77.5253 142.804 77.9088 143.205C78.2877 143.597 78.5788 144.098 78.7775 144.706C78.9855 145.319 79.0918 146.053 79.0918 146.916V152.784C79.0918 153.177 79.1287 153.492 79.2027 153.733C79.2858 153.966 79.406 154.143 79.5539 154.268C79.7017 154.398 79.8866 154.484 80.1084 154.527C80.3394 154.562 80.612 154.579 80.9216 154.579H81.0141V155.925H74.9884Z" fill="white"/>
<path d="M98.1302 142.446C98.1302 143.011 98.0424 143.499 97.8714 143.913C97.7097 144.327 97.4833 144.69 97.1876 145C96.8918 145.303 96.5314 145.561 96.1155 145.777C95.695 145.984 95.2283 146.166 94.7107 146.312V146.433C95.3392 146.584 95.9122 146.791 96.4297 147.054C96.9473 147.309 97.3909 147.624 97.7605 148.004C98.1395 148.375 98.4306 148.806 98.6293 149.298C98.8372 149.794 98.9435 150.351 98.9435 150.972C98.9435 152.629 98.2966 153.872 97.0027 154.7C95.7089 155.52 93.7727 155.926 91.1988 155.926H82.4561V154.58H83.5651C83.7592 154.58 83.944 154.562 84.1196 154.528C84.2906 154.485 84.4384 154.403 84.5632 154.286C84.6833 154.174 84.785 154.01 84.8589 153.803C84.9421 153.587 84.9883 153.298 84.9883 152.94V140.806C84.9883 140.474 84.9421 140.202 84.8589 139.995C84.785 139.779 84.6833 139.611 84.5632 139.495C84.4384 139.382 84.2906 139.3 84.1196 139.253C83.944 139.21 83.7592 139.184 83.5651 139.184H82.4561V137.855H90.3671C92.9409 137.855 94.8771 138.23 96.1709 138.977C97.474 139.715 98.1302 140.871 98.1302 142.446ZM89.2581 154.373H91.051C91.6517 154.373 92.1646 154.316 92.5851 154.2C93.0149 154.075 93.3614 153.872 93.6202 153.596C93.8882 153.32 94.0823 152.966 94.1932 152.526C94.3133 152.077 94.378 151.533 94.378 150.886C94.378 150.265 94.3226 149.73 94.2117 149.281C94.11 148.824 93.9344 148.444 93.6757 148.142C93.4169 147.844 93.0749 147.62 92.659 147.469C92.2524 147.322 91.7349 147.244 91.1064 147.244H89.2581V154.373ZM89.2581 145.708H90.2931C90.9216 145.708 91.4437 145.648 91.8643 145.518C92.294 145.393 92.6313 145.203 92.8809 144.949C93.1258 144.686 93.306 144.345 93.4169 143.93C93.5278 143.516 93.5832 143.024 93.5832 142.446C93.5832 141.872 93.5185 141.393 93.3984 141.014C93.2736 140.625 93.0749 140.306 92.8069 140.064C92.5481 139.823 92.2016 139.65 91.7718 139.546C91.3513 139.443 90.8384 139.391 90.2377 139.391H89.2581V145.708Z" fill="white"/>
<path d="M105.342 152.162C105.342 152.887 105.462 153.435 105.712 153.801C105.957 154.16 106.345 154.336 106.876 154.336C107.255 154.336 107.602 154.263 107.911 154.112C108.23 153.952 108.503 153.732 108.725 153.456C108.956 153.171 109.131 152.831 109.242 152.438C109.362 152.037 109.427 151.588 109.427 151.092V149.193L108.207 149.262C107.662 149.288 107.209 149.366 106.839 149.504C106.47 149.642 106.174 149.832 105.952 150.073C105.73 150.306 105.569 150.591 105.472 150.936C105.384 151.281 105.342 151.691 105.342 152.162ZM107.745 143.566C107.399 143.566 107.107 143.635 106.876 143.774C106.641 143.912 106.451 144.101 106.303 144.343C106.165 144.585 106.068 144.874 106.008 145.206C105.957 145.543 105.934 145.909 105.934 146.311C104.714 146.311 103.794 146.186 103.18 145.931C102.574 145.668 102.274 145.232 102.274 144.619C102.274 144.149 102.413 143.752 102.699 143.428C102.995 143.096 103.392 142.824 103.9 142.617C104.418 142.41 105.01 142.263 105.675 142.168C106.35 142.078 107.08 142.03 107.856 142.03C108.803 142.03 109.63 142.108 110.333 142.255C111.044 142.406 111.636 142.652 112.107 142.997C112.588 143.333 112.944 143.774 113.179 144.326C113.424 144.869 113.549 145.534 113.549 146.328V152.783C113.549 153.128 113.572 153.417 113.623 153.646C113.683 153.879 113.775 154.06 113.9 154.198C114.02 154.336 114.187 154.436 114.399 154.492C114.621 154.552 114.88 154.578 115.176 154.578H115.286V155.924H110.24L109.667 154.181H109.427C109.131 154.518 108.845 154.811 108.577 155.061C108.318 155.316 108.032 155.527 107.727 155.7C107.431 155.864 107.089 155.976 106.71 156.045C106.34 156.123 105.901 156.166 105.398 156.166C104.792 156.166 104.233 156.084 103.716 155.924C103.198 155.765 102.745 155.51 102.366 155.165C101.983 154.82 101.682 154.397 101.461 153.888C101.239 153.37 101.128 152.761 101.128 152.058C101.128 150.677 101.632 149.659 102.644 149.003C103.651 148.347 105.176 147.993 107.209 147.933L109.427 147.847V146.449C109.427 146.035 109.409 145.65 109.372 145.292C109.335 144.939 109.261 144.632 109.15 144.378C109.039 144.127 108.863 143.929 108.632 143.791C108.411 143.644 108.115 143.566 107.745 143.566Z" fill="white"/>
<path d="M131.855 142.341V143.704C131.568 143.704 131.323 143.735 131.115 143.791C130.917 143.851 130.732 143.955 130.561 144.101C130.385 144.239 130.233 144.425 130.099 144.654C129.96 144.887 129.821 145.18 129.674 145.534C129.35 146.375 129.017 147.234 128.675 148.106C128.329 148.981 127.982 149.862 127.64 150.746C127.294 151.622 126.943 152.498 126.587 153.37C126.24 154.233 125.908 155.087 125.589 155.924C125.265 156.74 124.965 157.452 124.683 158.064C124.397 158.686 124.096 159.221 123.777 159.67C123.468 160.127 123.121 160.507 122.742 160.809C122.373 161.106 121.934 161.344 121.43 161.516C120.922 161.698 120.339 161.827 119.674 161.896C119.009 161.965 118.223 162 117.327 162H116.864V160.533C117.812 160.533 118.611 160.42 119.267 160.205C119.933 159.997 120.492 159.691 120.949 159.29C121.416 158.897 121.8 158.427 122.095 157.875C122.391 157.322 122.65 156.71 122.872 156.045L117.992 144.913C117.881 144.671 117.756 144.481 117.622 144.343C117.484 144.205 117.345 144.101 117.197 144.032C117.049 143.955 116.883 143.903 116.698 143.877C116.522 143.855 116.338 143.842 116.144 143.842V142.341H123.87V143.704C123.338 143.704 122.918 143.769 122.613 143.894C122.317 144.024 122.169 144.27 122.169 144.636C122.169 144.774 122.197 144.943 122.262 145.137C122.322 145.335 122.377 145.495 122.428 145.62C122.585 145.965 122.751 146.354 122.927 146.777C123.098 147.191 123.264 147.605 123.426 148.019C123.597 148.433 123.759 148.839 123.907 149.227C124.055 149.607 124.184 149.948 124.295 150.246C124.429 150.569 124.54 150.863 124.628 151.126C124.711 151.381 124.785 151.618 124.849 151.834C124.909 152.041 124.951 152.239 124.979 152.42C125.016 152.593 125.043 152.766 125.071 152.938C125.08 152.766 125.113 152.576 125.164 152.369C125.224 152.153 125.284 151.946 125.348 151.747C125.409 151.553 125.469 151.381 125.533 151.23C125.593 151.083 125.635 150.971 125.663 150.902L127.456 145.948C127.493 145.87 127.52 145.771 127.548 145.655C127.585 145.542 127.613 145.426 127.64 145.309C127.664 145.197 127.682 145.085 127.696 144.982C127.705 144.878 127.714 144.787 127.714 144.705C127.714 144.326 127.539 144.067 127.197 143.929C126.85 143.782 126.365 143.704 125.737 143.704V142.341H131.855Z" fill="white"/>
<path d="M65.5804 7.45117C56.6526 -6.89494 35.9113 0.997991 39.4972 18.1862C42.1704 28.8582 56.8405 36.4963 64.1353 41.3765C64.7058 41.7248 65.3209 41.9094 65.9809 41.9258C66.6408 41.9445 67.2626 41.7926 67.8487 41.477C77.6355 36.1808 100.227 22.5359 91.3393 6.73597C85.7782 -2.94731 72.2757 -1.70622 66.8801 7.45117C66.8063 7.56102 66.7123 7.6475 66.596 7.71061C66.4819 7.77138 66.3589 7.8041 66.2314 7.8041C66.1017 7.8041 65.9786 7.77138 65.8645 7.71061C65.7482 7.6475 65.6543 7.56102 65.5804 7.45117Z" fill="white"/>
<mask id="mask0_658_84" style="mask-type:luminance" maskUnits="userSpaceOnUse" x="0" y="52" width="132" height="72">
<path d="M0 52.0557H132V123.258H0V52.0557Z" fill="white"/>
</mask>
<g mask="url(#mask0_658_84)">
<path d="M117.952 94.9915C114.317 92.5327 110.811 89.6859 106.637 88.2812C107.552 84.8127 103.789 83.4758 101.152 83.8497C98.3289 84.1559 95.3313 85.5863 93.0362 87.5099C93.2218 85.2755 93.5775 83.0738 94.101 80.9001C94.3493 79.8133 94.79 78.6493 94.7094 77.5134C94.5752 75.6529 92.9758 75.106 91.4099 75.272C88.5174 75.5805 85.6563 77.4994 84.7235 80.3812C79.9386 81.059 77.3952 85.799 76.2409 90.6722C72.8049 90.2141 70.069 93.36 68.6776 96.3564C65.8188 99.687 62.0271 102.218 57.5956 100.809C63.112 94.6853 69.729 89.8588 76.5205 85.4227C77.214 84.9202 76.8135 83.5295 75.9009 83.8918C74.7063 84.3779 73.5654 84.9763 72.4783 85.6845C72.2546 84.8127 71.8944 84.0063 71.4 83.2677C70.9034 82.5292 70.3017 81.9004 69.5926 81.3816C70.7916 80.5729 72.0734 80.0493 73.2903 79.2851C73.9189 78.9064 73.4782 77.9902 72.8161 78.1188C70.9213 78.488 69.1742 79.3972 67.4965 80.3695C65.0582 79.7478 62.3112 81.6036 62.13 84.2517C56.797 88.2672 51.8421 92.7337 47.2607 97.6513C44.6166 100.521 39.3194 101.332 36.9706 98.516C48.2047 91.2472 56.1102 79.6614 68.4293 74.1735C69.1765 73.8416 68.6441 72.5374 67.8746 72.8015C61.4499 75.0102 56.24 79.5562 51.2314 84.1372C49.0928 86.0958 46.9834 88.1199 44.8269 90.0832C44.073 90.7774 43.2275 91.3196 42.2924 91.7076C41.3551 92.0956 40.3842 92.3059 39.3776 92.3387C37.5477 92.3854 35.8342 91.9413 35.1743 91.1093C41.6839 86.2735 48.2361 81.3138 54.2312 75.7581C55.5846 74.898 56.7299 73.7364 58.1146 72.9347C59.4053 72.1634 60.8281 71.6282 62.1591 70.9387C65.5772 70.1861 69.1273 68.9988 71.9526 66.8952C77.2654 65.2475 83.0391 63.4337 88.6248 63.3823C93.2174 63.3309 97.7271 64.9132 102.056 66.36C110.948 69.3774 119.643 72.9184 128.141 76.9829C129.316 77.5391 130.345 75.7277 129.161 75.1668C122.316 71.9274 115.346 68.9871 108.254 66.3436C101.347 63.782 93.7229 60.6103 86.267 61.4424C82.4172 61.9122 78.6345 62.7279 74.9188 63.8848C75.6503 62.8401 76.2297 61.7112 76.657 60.4981C77.082 59.2851 77.3415 58.0323 77.431 56.7445C77.5898 54.3932 75.496 52.9348 73.6079 52.1775C73.4133 52.1191 73.2165 52.1167 73.0196 52.1705C72.8228 52.2242 72.655 52.3271 72.5141 52.479C68.4539 56.443 62.3984 57.6911 56.9871 58.0043C53.8643 58.1609 50.7415 57.5999 47.6813 58.4484C42.8986 59.818 39.6192 64.1115 35.3309 66.4769C25.8148 71.7287 18.9092 72.8155 15.4821 73.6896C15.3994 72.6963 15.4888 71.2542 14.178 71.4202C9.79795 72.1377 4.8654 73.1007 0.677764 74.6456C0.469724 74.7134 0.308662 74.8419 0.190101 75.0312C0.0715414 75.2206 0.0245646 75.4286 0.0514084 75.6529H0.0446974V122.132C0.0111425 122.272 0.0111425 122.415 0.0446974 122.555C0.615129 124.376 4.30168 121.117 5.25911 120.643C6.47379 119.897 14.8535 114.977 17.5648 113.383C18.511 112.872 18.4573 111.745 18.4596 110.794C33.4675 103.595 49.7304 117.046 68.9573 115.529C70.2525 115.396 71.6305 113.776 72.3463 112.93C73.0509 112.098 74.3171 110.719 74.3775 109.44C74.5631 108.751 74.7399 108.059 74.9121 107.363C77.4287 105.694 80.7641 105.046 82.7259 102.599C85.3432 103.438 88.2826 102.267 89.9446 100.084C91.8975 99.7852 93.6826 100.61 95.6065 99.673C97.4229 98.7918 98.5794 97.1558 99.812 95.5875C101.465 93.4979 103.335 91.6422 105.418 90.0201C107.313 90.6932 109.163 91.4482 110.84 92.6098C117.491 96.8846 123.768 101.784 130.273 106.266C131.183 106.83 132.291 105.441 131.434 104.7C127.132 101.209 122.437 98.2239 117.952 94.9915ZM65.774 82.2767C67.5256 81.8888 69.125 83.3098 70.0042 84.7192C70.2838 85.4905 70.8318 86.2665 69.9863 86.9373C69.8476 87.0541 69.691 87.1242 69.5143 87.1453C69.3375 87.1663 69.1675 87.1359 69.0087 87.0541C68.1161 85.196 66.2348 84.0227 64.1679 83.7469C64.3289 83.3986 64.5504 83.0971 64.8278 82.8424C65.1074 82.5876 65.4228 82.4006 65.774 82.2767ZM56.4905 91.5417C58.6403 89.541 60.8884 87.6688 63.235 85.9229C65.2998 85.3129 67.5122 87.012 67.6464 89.188C62.8234 92.7664 58.647 97.1441 54.267 101.255C51.6788 103.7 48.9966 103.967 45.8939 102.349C49.1465 98.488 52.8062 94.9213 56.4883 91.5417H56.4905ZM18.2247 108.571C17.0368 97.6676 16.3322 86.7246 15.6499 75.7792L18.4752 75.1107C19.4975 85.7429 20.7279 96.3494 22.164 106.93C20.8531 107.482 19.54 108.029 18.2247 108.571ZM72.5409 108.751C71.9727 110.749 70.512 112.43 68.8365 113.505C60.5037 113.629 52.3969 112.273 44.5204 109.443C37.8945 107.18 31.2372 105.205 24.3562 106.395C22.9179 95.6623 21.5712 85.3175 20.5377 74.5357C29.4342 73.2573 36.8431 68.5103 43.7956 62.8705C47.4643 59.624 52.0926 60.2364 56.5465 60.2457C62.5103 59.991 68.8096 58.6914 73.5565 54.6924C75.2477 55.5315 75.5027 56.4266 74.9568 58.259C73.6012 65.5303 66.0246 67.8255 59.8326 69.139C58.8953 69.1974 58.1191 69.6111 57.2757 70.2843C54.6137 72.5491 51.8533 74.7788 48.6096 76.0737C47.0348 76.7141 45.2832 76.845 43.7576 77.5391C43.0149 77.878 43.2521 79.1238 43.9813 79.3061C44.9947 79.5562 46.14 79.3762 47.2138 79.084C42.6168 82.7629 37.975 86.374 33.2863 89.9219C33.1744 89.9944 33.0783 90.0879 32.9977 90.2001C32.9194 90.3123 32.8635 90.4338 32.8299 90.5694C32.7964 90.7026 32.7874 90.8381 32.8031 90.976C32.8188 91.1139 32.859 91.2448 32.9217 91.3664C34.2191 94.0659 36.8878 94.8045 39.561 94.5614C38.0936 95.716 36.5724 96.7818 34.9953 97.7634C34.888 97.8312 34.7985 97.9177 34.7224 98.0205C34.6486 98.1257 34.5972 98.2403 34.5636 98.3665C34.5323 98.4903 34.5256 98.6189 34.5412 98.7474C34.5569 98.876 34.5949 98.9975 34.6553 99.1097C35.0423 99.7454 35.5143 100.302 36.0758 100.776C36.6373 101.251 37.2569 101.62 37.9325 101.884C38.6797 103.055 41.4669 103.406 42.7465 103.352C43.5742 105.275 45.9633 106.243 47.8804 106.596C49.1957 106.844 50.5133 106.848 51.8309 106.615C53.1485 106.381 54.39 105.92 55.551 105.231C56.0521 104.927 56.5934 104.268 57.1616 104.147C57.8506 103.997 58.8394 104.348 59.553 104.378C62.2799 104.474 64.5079 104.053 66.9238 102.321C66.5816 103.885 65.9932 105.341 65.1544 106.689C65.085 106.823 65.0627 106.963 65.0828 107.112C65.1029 107.262 65.1656 107.391 65.2685 107.498C65.3714 107.606 65.4944 107.669 65.6376 107.69C65.7807 107.713 65.9172 107.687 66.0447 107.615C70.72 105.105 67.2907 94.3627 75.8919 92.528C75.8897 92.528 73.8137 104.203 72.5409 108.751ZM78.3235 103.492C77.4735 103.908 76.4019 104.312 75.4982 104.89C78.4063 82.1879 84.4327 82.84 84.4327 82.84C84.5379 83.3776 84.2963 84.1699 84.3499 84.7355C84.0681 87.0378 83.7862 89.34 83.5044 91.6422C82.8288 96.4359 83.4171 101.356 78.3235 103.492ZM85.0278 100.734C84.6318 100.762 84.2381 100.755 83.8444 100.713C84.8667 98.2426 84.9204 95.3818 85.2515 92.7453C85.6138 89.5339 86.0903 86.3225 86.3968 83.1088C86.493 82.639 86.4863 82.1692 86.3789 81.7018C86.54 81.0777 86.7502 80.4747 87.012 79.8881C88.1662 78.3992 89.7344 77.3498 91.7275 77.247C92.7632 77.1909 92.8013 77.8266 92.5888 78.7522C92.3651 79.7338 92.0989 80.7061 91.8953 81.6924C90.1057 87.4631 92.3762 99.3294 85.0278 100.734ZM103.798 88.8047C101.358 90.782 99.3937 93.0562 97.4385 95.5314C95.6221 97.9317 93.9757 98.6867 91.081 98.287C92.3405 95.7791 92.6425 92.8552 92.855 89.9523C95.3671 88.5196 97.6265 86.6287 100.505 86.0047C101.751 85.771 104.389 85.5162 104.812 87.1406C104.953 87.9493 104.331 88.3723 103.798 88.8047Z" fill="white"/>
</g>
</svg>
