<svg width="234" height="234" viewBox="0 0 234 234" fill="none" xmlns="http://www.w3.org/2000/svg">
<path d="M40.8953 188.219C83.2137 209.969 151.825 209.969 194.143 188.22C236.461 166.47 236.461 131.207 194.143 109.458C151.825 87.7079 83.2132 87.7079 40.8948 109.457C-1.42318 131.207 -1.42318 166.47 40.8953 188.219Z" fill="#F5F5F5"/>
<path d="M190.714 129.96C190.765 127.052 193.808 119.451 196.891 115.729C199.974 112.006 204.766 109.329 208.115 110.54C211.235 111.669 210.823 115.78 206.968 118.442C203.112 121.104 197.329 124.431 195.572 129.118L191.958 134.844L190.714 129.96Z" fill="#E80F88"/>
<path opacity="0.1" d="M190.714 129.96C190.765 127.052 193.808 119.451 196.891 115.729C199.974 112.006 204.766 109.329 208.115 110.54C211.235 111.669 210.823 115.78 206.968 118.442C203.112 121.104 197.329 124.431 195.572 129.118L191.958 134.844L190.714 129.96Z" fill="black"/>
<path d="M191.265 132.32C191.358 132.314 191.439 132.247 191.459 132.152C193.579 122.261 201.749 114.334 206.586 112.635C206.696 112.597 206.755 112.475 206.716 112.364C206.678 112.255 206.559 112.194 206.445 112.234C201.516 113.965 193.196 122.022 191.044 132.064C191.019 132.178 191.092 132.291 191.206 132.316C191.227 132.32 191.246 132.321 191.265 132.32Z" fill="white"/>
<path d="M192.634 138.699C193.13 137.073 195.173 134.411 198.441 132.239C202.056 129.837 206.595 128.782 207.671 126.882C208.963 124.6 207.059 122.389 203.382 122.78C199.705 123.171 193.167 128.065 192.004 135.583L192.634 138.699Z" fill="#E80F88"/>
<path d="M191.954 136.971C192.035 136.966 192.109 136.915 192.14 136.834C195.331 128.385 201.871 125.513 204.882 125.176C204.999 125.162 205.083 125.057 205.07 124.941C205.057 124.824 204.956 124.74 204.835 124.753C201.505 125.126 195 128.059 191.742 136.684C191.7 136.793 191.756 136.916 191.865 136.957C191.895 136.969 191.925 136.973 191.954 136.971Z" fill="white"/>
<path d="M48.7427 157.449L52.285 155.425C52.285 155.425 53.9838 146.062 52.7132 138.014C50.9268 126.699 43.2221 122.796 40.424 123.92C37.6258 125.045 36.9683 128.397 42.0217 134.935C45.0033 138.793 48.8381 146.947 48.7427 157.449Z" fill="#E80F88"/>
<g opacity="0.1">
<path d="M48.7427 157.449L52.285 155.425C52.285 155.425 53.9838 146.062 52.7132 138.014C50.9268 126.699 43.2221 122.796 40.424 123.92C37.6258 125.045 36.9683 128.397 42.0217 134.935C45.0033 138.793 48.8381 146.947 48.7427 157.449Z" fill="black"/>
</g>
<path d="M50.0264 152.955C50.0147 152.955 50.0034 152.954 49.9913 152.953C49.8532 152.934 49.7563 152.806 49.7755 152.668C51.2394 142.075 46.9792 130.468 42.1925 125.79C42.0928 125.693 42.091 125.533 42.1888 125.433C42.2866 125.335 42.4462 125.332 42.5459 125.43C47.4196 130.192 51.7613 141.988 50.2758 152.737C50.259 152.863 50.1504 152.955 50.0264 152.955Z" fill="white"/>
<path d="M38.9146 163.127C38.3549 163.448 37.2013 162.745 36.7595 162.449C36.0032 161.941 35.3901 161.223 34.9829 160.41C34.5093 159.464 34.39 158.45 34.5384 157.403C34.6151 156.861 34.7672 156.332 34.9184 155.805C35.0672 155.288 35.2155 154.77 35.3644 154.253C35.5109 153.742 35.6592 153.214 35.5918 152.688C35.4561 151.627 34.514 150.883 33.6576 150.242C32.7108 149.533 31.7243 148.597 31.7299 147.319C31.7341 146.334 32.2447 145.418 32.8554 144.644C33.4662 143.871 34.1911 143.187 34.7433 142.37C35.1407 141.782 35.4509 141.092 35.3864 140.385C35.3461 139.946 35.1641 139.532 34.9539 139.145C34.5028 138.313 33.9075 137.551 33.5963 136.657C33.285 135.764 33.3295 134.652 34.0268 134.013C34.5992 133.488 35.45 133.415 36.225 133.466C36.942 133.513 37.6426 133.836 38.2697 134.185C40.298 135.313 41.4559 137.716 43.6082 138.583C44.4384 138.918 45.3477 138.991 46.2131 139.22C47.0784 139.449 47.9606 139.891 48.3617 140.691C49.1516 142.269 47.6854 144.214 48.2409 145.889C48.7323 147.372 50.1728 147.939 50.9815 149.275C51.3353 149.859 51.4168 150.535 51.3597 151.216C51.2628 152.368 51.0943 153.213 50.5416 154.495C50.0848 155.554 48.7417 157.449 48.7417 157.449C48.7089 157.482 39.0003 163.077 38.9146 163.127Z" fill="#E80F88"/>
<path d="M44.6649 160.063C44.6616 160.063 44.6579 160.063 44.6579 160.063C44.5147 160.057 44.407 159.939 44.4122 159.8C44.8296 149.773 40.1052 138.703 36.6696 135.487C36.568 135.392 36.5624 135.232 36.6579 135.13C36.7534 135.028 36.913 135.023 37.015 135.118C40.5198 138.399 45.3402 149.652 44.9176 159.821C44.9115 159.957 44.7992 160.063 44.6649 160.063Z" fill="white"/>
<path d="M43.1622 148.217C43.1374 148.217 43.1121 148.213 43.0878 148.205C39.8665 147.209 35.8511 147.034 35.8113 147.033C35.6719 147.026 35.5638 146.909 35.5689 146.769C35.575 146.63 35.6803 146.521 35.8319 146.528C35.8731 146.529 39.9517 146.708 43.2366 147.723C43.37 147.764 43.4449 147.906 43.4032 148.039C43.37 148.147 43.2703 148.217 43.1622 148.217Z" fill="white"/>
<path d="M40.1483 159.406L91.224 188.893C92.3429 189.539 94.1578 189.539 95.2768 188.893L191.979 133.051C193.098 132.405 193.098 131.357 191.979 130.711L140.903 101.224C139.783 100.577 137.969 100.577 136.85 101.224L40.1483 157.066C39.0289 157.713 39.0289 158.761 40.1483 159.406Z" fill="#37474F"/>
<path d="M67.7533 173.105C69.308 174.002 71.8282 174.002 73.3829 173.105C74.9376 172.207 74.9376 170.753 73.3829 169.855C71.8282 168.957 69.308 168.957 67.7533 169.855C66.1986 170.752 66.1986 172.208 67.7533 173.105Z" fill="#263238"/>
<path d="M91.2239 188.893L40.1483 159.406C39.1477 158.829 39.0443 157.931 39.8333 157.285C38.865 158.02 38.1218 159.409 38.1218 160.576V162.482C38.1218 163.774 39.0293 165.345 40.1483 165.992L91.2239 195.478C91.7832 195.801 92.517 195.963 93.2504 195.963V189.378C92.517 189.378 91.7832 189.216 91.2239 188.893Z" fill="#455A64"/>
<path d="M191.978 139.636C193.098 138.99 194.005 137.418 194.005 136.126V134.221C194.005 133.052 193.261 131.663 192.291 130.928C193.083 131.574 192.981 132.473 191.979 133.051L95.2768 188.893C94.7171 189.216 93.9837 189.378 93.2504 189.378V195.963C93.9837 195.963 94.7171 195.801 95.2768 195.479L191.978 139.636Z" fill="#263238"/>
<path d="M99.6399 182.783L51.4275 154.947C50.7559 154.559 50.7559 153.93 51.4275 153.543L130.717 107.737C131.389 107.349 132.478 107.349 133.149 107.736L181.378 135.568C182.05 135.956 182.05 136.585 181.378 136.972L102.071 182.783C101.401 183.171 100.312 183.171 99.6399 182.783Z" fill="#FAFAFA"/>
<path d="M87.1031 145.326L115.619 161.789L97.6214 172.18C97.064 172.502 96.1523 172.502 95.595 172.18L69.1062 156.887C68.5488 156.565 68.5488 156.038 69.1062 155.717L87.1031 145.326Z" fill="#E6E6E6"/>
<path d="M115.616 161.789L112.256 148.43C112.176 148.113 112.003 147.823 111.75 147.616C111.748 147.615 111.746 147.613 111.744 147.611C111.488 147.396 111.175 147.26 110.841 147.233L87.1017 145.324L115.616 161.789Z" fill="#E0E0E0"/>
<path d="M115.617 161.789L90.0965 160.736C89.4647 160.712 88.9452 160.23 88.8704 159.603L87.1013 145.324L115.617 161.789Z" fill="#E0E0E0"/>
<path d="M115.617 161.789L90.0965 160.736C89.4647 160.712 88.9452 160.23 88.8704 159.603L87.1013 145.324L90.251 159.355C90.3071 159.608 90.5271 159.795 90.7892 159.818L115.617 161.789Z" fill="#FAFAFA"/>
<path d="M92.8057 160.692L96.6077 172.765L97.6209 172.18L92.8057 160.692Z" fill="#FAFAFA"/>
<path d="M68.092 156.302L69.1057 155.716L89.0037 158.497L68.092 156.302Z" fill="#FAFAFA"/>
<path d="M103.324 139.325L126.011 152.423C126.571 152.746 127.478 152.746 128.037 152.423L160.23 133.837C160.79 133.514 160.79 132.99 160.23 132.667L137.544 119.569C136.984 119.246 136.077 119.246 135.517 119.569L103.324 138.155C102.764 138.478 102.764 139.002 103.324 139.325Z" fill="#E6E6E6"/>
<path d="M121.363 137.597C120.805 136.644 120.737 135.694 121.16 134.744C121.582 133.795 122.498 132.914 123.907 132.1C125.516 131.172 127.19 130.582 128.927 130.331C130.665 130.081 132.397 130.141 134.124 130.514C135.849 130.887 137.517 131.537 139.126 132.467C140.629 133.334 141.653 134.228 142.199 135.147C142.745 136.065 142.812 136.962 142.402 137.836C141.991 138.711 141.128 139.528 139.813 140.287C138.416 141.094 137.039 141.543 135.683 141.635C134.327 141.725 133.156 141.487 132.169 140.918C131.688 140.639 131.414 140.34 131.35 140.018C131.285 139.696 131.399 139.389 131.693 139.097C130.929 139.158 130.178 139.107 129.438 138.944C128.699 138.782 128.011 138.518 127.378 138.152C126.297 137.515 125.733 136.836 125.687 136.118C125.64 135.399 126.156 134.728 127.237 134.104C128.575 133.331 130.014 132.962 131.552 132.996C133.091 133.029 134.553 133.446 135.938 134.246C136.537 134.592 137.021 134.99 137.391 135.442C137.762 135.893 137.964 136.318 137.999 136.718L133.772 139.158C133.431 139.355 133.247 139.53 133.217 139.682C133.188 139.835 133.308 139.989 133.578 140.145C134.036 140.409 134.656 140.462 135.436 140.302C136.217 140.143 137.083 139.789 138.034 139.24C139.091 138.629 139.76 137.979 140.042 137.287C140.324 136.595 140.25 135.909 139.822 135.228C139.393 134.547 138.662 133.908 137.629 133.311C135.738 132.219 133.768 131.635 131.719 131.557C129.671 131.479 127.666 132.006 125.705 133.138C124.553 133.803 123.814 134.504 123.485 135.243C123.156 135.982 123.206 136.706 123.635 137.414C124.063 138.123 124.806 138.782 125.863 139.392C126.439 139.725 127.064 140.005 127.739 140.231C128.414 140.458 129.045 140.599 129.633 140.653C129.726 140.667 129.791 140.684 129.826 140.704C129.861 140.724 129.861 140.765 129.826 140.826L129.21 141.691C129.163 141.745 129.134 141.775 129.122 141.782C129.064 141.816 128.97 141.823 128.84 141.802C128.124 141.714 127.369 141.536 126.577 141.268C125.784 141 125.047 140.67 124.366 140.277C122.921 139.442 121.92 138.549 121.363 137.597ZM131.12 138.003C131.854 138.068 132.479 137.951 132.996 137.652L135.445 136.239C135.257 135.845 134.846 135.466 134.212 135.1C133.413 134.639 132.555 134.402 131.64 134.388C130.724 134.374 129.867 134.598 129.069 135.059C128.388 135.452 128.055 135.84 128.073 136.223C128.091 136.606 128.458 137.005 129.174 137.418C129.737 137.744 130.387 137.939 131.12 138.003Z" fill="#FAFAFA"/>
<path d="M162.519 118.36C162.862 118.558 163.418 118.558 163.761 118.36C164.104 118.162 164.104 117.84 163.761 117.643C163.418 117.445 162.862 117.445 162.519 117.643C162.175 117.84 162.175 118.162 162.519 118.36Z" fill="#263238"/>
<path d="M164.503 123.993C165.189 124.389 166.302 124.389 166.988 123.993C167.674 123.596 167.674 122.954 166.988 122.558C166.302 122.162 165.189 122.162 164.503 122.558C163.817 122.954 163.817 123.596 164.503 123.993Z" fill="#263238"/>
<path d="M162.752 121.496C163.209 121.232 163.185 120.79 162.697 120.509L154.524 115.79C154.037 115.509 153.27 115.494 152.813 115.758C152.356 116.023 152.38 116.465 152.868 116.746L161.041 121.465C161.528 121.746 162.295 121.761 162.752 121.496Z" fill="#263238"/>
<path d="M56.806 61.9795C56.806 61.0566 57.4542 59.9339 58.2536 59.4725L132.304 16.7193C133.103 16.2578 134.399 16.2578 135.199 16.7193L136.83 17.6613C137.63 18.1228 138.278 19.2455 138.278 20.1684V76.9293C138.278 77.8485 137.626 78.9768 136.83 79.4364L62.7801 122.189C61.984 122.649 60.6811 122.649 59.885 122.189L58.2536 121.248C57.4575 120.788 56.806 119.66 56.806 118.74V61.9795Z" fill="#E80F88"/>
<path opacity="0.4" d="M57.2279 60.554L61.3365 62.9235L137.852 18.7424C137.592 18.2903 137.229 17.8935 136.832 17.6604L135.195 16.7225C134.401 16.2569 133.1 16.2569 132.305 16.7225L58.2552 59.4725C57.8513 59.7046 57.4881 60.1019 57.2279 60.554Z" fill="white"/>
<path opacity="0.1" d="M56.8035 61.9782V118.738C56.8035 119.662 57.454 120.786 58.2552 121.244L59.8848 122.189C60.0079 122.258 60.138 122.319 60.2821 122.367C60.467 122.429 60.6654 122.477 60.8779 122.504C61.2546 122.552 61.6515 122.538 62.0217 122.463C62.1176 122.442 62.2135 122.415 62.3025 122.388C62.3642 122.367 62.419 122.346 62.4738 122.319C62.207 122.415 61.9739 122.402 61.7821 122.306C61.5083 122.162 61.337 121.833 61.337 121.354V64.5938C61.337 63.9981 61.6384 63.546 62.09 63.3611L61.337 62.9231L57.2284 60.5536C56.9677 61.0057 56.8035 61.5195 56.8035 61.9782Z" fill="black"/>
<path opacity="0.2" d="M61.3365 62.923L95.6297 75.735C98.0741 76.6457 100.82 75.742 102.244 73.5574L107.751 65.1208L138.126 18.5847L108.849 65.4376L138.277 76.9541C138.27 77.4198 138.099 77.9402 137.825 78.3989L108.767 65.5691L102.367 75.8104C100.895 78.1592 97.9234 79.0765 95.3896 77.9538L90.8332 75.9428L61.7811 122.306C61.5073 122.162 61.3361 121.833 61.3361 121.354V120.409L90.6909 75.8801L61.3365 62.923Z" fill="black"/>
<path d="M69.8195 49.6702L64.7595 46.7513C64.7581 46.7503 64.7553 46.7489 64.7534 46.748L64.7071 46.7213L64.7024 46.7288C62.456 45.4605 59.3733 45.6519 55.9639 47.6199C49.0983 51.5843 43.531 61.2256 43.531 69.1544C43.531 73.1123 44.9196 75.8936 47.1613 77.1952V77.197L47.1716 77.2026C47.1716 77.2026 47.173 77.2031 47.173 77.204L51.7772 79.8328L52.877 77.9931C54.0128 77.7319 55.195 77.3267 56.4427 76.6059C63.3082 72.6415 68.8755 63.0002 68.877 55.0714C68.877 53.8939 68.7183 52.8573 68.4871 51.8955L69.8195 49.6702Z" fill="#37474F"/>
<path d="M60.7721 50.3778C53.9051 54.3422 48.3383 63.9835 48.3383 71.9123C48.3383 79.8412 53.9046 83.0549 60.7711 79.0905C67.6376 75.1261 73.2045 65.4848 73.205 57.556C73.2054 49.6271 67.639 46.4133 60.7721 50.3778Z" fill="#455A64"/>
<path d="M56.9079 65.6777C56.8255 65.6028 56.7932 65.4863 56.811 65.3262C56.8288 65.1662 56.8906 65.0085 56.9963 64.8521L60.8279 59.1538C60.9224 59.0176 61.0193 58.8837 61.1199 58.7513C61.2191 58.6193 61.3286 58.5187 61.4461 58.4508L62.8234 57.6557C62.953 57.5813 63.0644 57.571 63.159 57.6248C63.253 57.6796 63.2998 57.7816 63.2998 57.9309V71.1009C63.2998 71.2506 63.2526 71.407 63.159 71.5698C63.0644 71.7332 62.953 71.8516 62.8234 71.9264L61.3932 72.752C61.2636 72.8269 61.1517 72.8372 61.0572 72.7829C60.9631 72.7286 60.9163 72.6261 60.9163 72.4768V62.4054L58.4092 66.1162C58.303 66.2721 58.1883 66.376 58.0653 66.4265C57.9412 66.4775 57.8322 66.4696 57.7386 66.4012L56.9079 65.6777Z" fill="#FAFAFA"/>
<path d="M171.574 111.069V110.231H171.78C172.021 109.744 172.472 109.283 173.137 108.899C175.223 107.695 178.604 107.695 180.69 108.899C181.355 109.284 181.806 109.744 182.047 110.231H182.251V111.042C182.268 111.844 181.749 112.649 180.69 113.26C178.604 114.464 175.222 114.464 173.136 113.26C172.09 112.655 171.569 111.862 171.574 111.069Z" fill="#263238"/>
<path d="M180.691 108.05C178.605 106.846 175.223 106.846 173.137 108.05C171.051 109.255 171.051 111.207 173.137 112.411C175.223 113.615 178.605 113.615 180.691 112.411C182.776 111.207 182.776 109.255 180.691 108.05Z" fill="#455A64"/>
<path d="M178.289 78.1425L178.288 109.865C178.288 110.068 178.154 110.272 177.886 110.427C177.349 110.736 176.479 110.736 175.942 110.427C175.674 110.272 175.539 110.068 175.539 109.865L175.54 78.1425H178.289Z" fill="#37474F"/>
<path d="M175.539 81.6104V82.6044L178.289 84.1881V83.2011L175.539 81.6104Z" fill="#263238"/>
<path d="M193.092 69.7564V69.7573L192.858 70.2267L190.341 75.2746L189.146 77.6712L185.102 85.7807L184.657 86.6746C184.631 86.6769 184.605 86.6778 184.578 86.6778C184.414 86.6778 184.249 86.6413 184.125 86.5688L166.104 76.153C165.854 76.0084 165.651 75.6564 165.651 75.3672V68.4165C165.651 64.9439 167.937 60.8087 170.759 59.1791C172.096 58.4069 173.31 58.3437 174.221 58.8552L174.224 58.8478L193.092 69.7564Z" fill="#455A64"/>
<path d="M189.687 70.1233C188.548 70.5459 184.404 73.9684 184.404 79.3579C184.404 83.8881 184.409 86.2403 184.41 86.6633C184.465 86.6718 184.521 86.6779 184.578 86.6779C184.604 86.6779 184.63 86.6769 184.656 86.6746L185.102 85.7807L189.146 77.6712L190.34 75.2746L190.614 74.7256L189.687 70.1233Z" fill="#37474F"/>
<path d="M194.574 80.9823C194.574 80.9833 194.574 80.9847 194.573 80.9847C194.539 81.0446 194.476 81.1082 194.385 81.1658C194.371 81.1761 194.355 81.1854 194.339 81.1953L185.032 86.5688C184.927 86.6297 184.794 86.6652 184.657 86.6746C184.63 86.6769 184.604 86.6779 184.578 86.6779V79.3574C184.578 78.1083 184.876 76.7755 185.387 75.5011L185.846 75.766L189.146 77.6712L194.269 80.6304C194.269 80.6304 194.387 80.6987 194.531 80.7811C194.609 80.8265 194.62 80.9009 194.574 80.9823Z" fill="#37474F"/>
<path d="M193.092 69.7572C192.189 69.2836 190.997 69.3665 189.688 70.1228C188.219 70.9675 186.896 72.495 185.965 74.2524C185.751 74.6581 185.557 75.0761 185.387 75.5005C184.876 76.7749 184.578 78.1078 184.578 79.3569V86.6773C184.604 86.6773 184.63 86.6764 184.657 86.674C184.794 86.6647 184.927 86.6291 185.032 86.5683L194.339 81.1947C194.355 81.1853 194.37 81.176 194.385 81.1652C194.454 81.1179 194.517 81.0552 194.573 80.9841C194.574 80.9841 194.574 80.9832 194.574 80.9818C194.706 80.8152 194.793 80.598 194.793 80.4085V73.4587C194.793 71.5993 194.136 70.3053 193.092 69.7572ZM194.133 80.7089L185.238 85.8448C185.163 85.8883 185.102 85.8532 185.102 85.7661V79.3573C185.102 78.2402 185.36 77.0005 185.846 75.7664C185.855 75.7434 185.864 75.7191 185.873 75.6962C186.056 75.2403 186.263 74.799 186.494 74.3769C187.397 72.7066 188.633 71.3349 189.95 70.5772C190.627 70.1855 191.268 69.987 191.855 69.987C192.226 69.987 192.562 70.0699 192.858 70.2271C193.748 70.7017 194.269 71.8525 194.269 73.4601V80.4735C194.269 80.5601 194.208 80.6654 194.133 80.7089Z" fill="#455A64"/>
<path d="M194.269 73.4596V80.6303L185.846 75.7659C185.854 75.743 185.863 75.7186 185.873 75.6957C186.776 73.4395 188.299 71.5263 189.949 70.5767C190.626 70.185 191.267 69.9866 191.854 69.9866C193.343 69.987 194.269 71.3176 194.269 73.4596Z" fill="#263238"/>
<path d="M178.852 77.0309L179.593 76.6032L179.593 76.6027L179.598 76.5994L179.599 76.6004C179.852 76.4572 180.201 76.4787 180.586 76.701C181.361 77.1489 181.99 78.2379 181.99 79.1337C181.99 79.5806 181.833 79.8951 181.58 80.042L181.579 80.043L180.889 80.438L180.765 80.2302C180.637 80.2007 180.503 80.1548 180.362 80.0734C179.587 79.6255 178.958 78.5365 178.957 77.6407C178.957 77.5078 178.975 77.3904 179.001 77.2818L178.852 77.0309Z" fill="#E0E0E0"/>
<path d="M179.874 77.1105C180.65 77.5584 181.278 78.6474 181.278 79.5432C181.278 80.4389 180.649 80.8021 179.874 80.3542C179.098 79.9064 178.469 78.8173 178.469 77.9216C178.469 77.0258 179.098 76.6626 179.874 77.1105Z" fill="#FAFAFA"/>
<path d="M179.874 79.1182C179.649 79.1182 179.467 78.9357 179.467 78.7111V67.1978C179.467 66.9727 179.649 66.7906 179.874 66.7906C180.099 66.7906 180.281 66.9732 180.281 67.1978V78.7111C180.281 78.9362 180.099 79.1182 179.874 79.1182Z" fill="#EBEBEB"/>
<path d="M179.466 68.3351L175.387 65.9796L176.664 68.4371L175.387 69.4204L179.466 71.7758V68.3351Z" fill="#E80F88"/>
<mask id="mask0_1014_2358" style="mask-type:luminance" maskUnits="userSpaceOnUse" x="185" y="69" width="10" height="19">
<path d="M194.269 73.4596C194.269 71.3176 193.343 69.9871 191.854 69.9871C191.267 69.9871 190.626 70.185 189.949 70.5772C188.299 71.5263 186.776 73.44 185.873 75.6962C185.863 75.7191 185.854 75.7435 185.846 75.7664L185.845 75.7673C185.358 77.0028 185.101 78.2384 185.101 79.3569V87.0204L194.269 81.7297V73.4596Z" fill="white"/>
</mask>
<g mask="url(#mask0_1014_2358)">
<path d="M192.143 75.8062C192.143 75.6911 192.062 75.5512 191.963 75.4941L182.736 70.1668C182.636 70.1093 182.475 70.1093 182.375 70.1668L182.172 70.2843C182.072 70.3419 181.992 70.4818 181.992 70.5969V77.6698C181.992 77.7845 182.073 77.9249 182.172 77.982L191.399 83.3092C191.498 83.3663 191.661 83.3663 191.76 83.3092L191.963 83.1917C192.062 83.1346 192.143 82.9938 192.143 82.8796V75.8062Z" fill="#F0F0F0"/>
<path d="M192.09 75.6284L191.578 75.9237L182.044 70.4186C182.076 70.3624 182.121 70.3128 182.171 70.2838L182.375 70.1668C182.474 70.1088 182.636 70.1088 182.735 70.1668L191.962 75.4936C192.012 75.5226 192.058 75.5722 192.09 75.6284Z" fill="#FAFAFA"/>
<path d="M192.143 75.8058V82.8787C192.143 82.9938 192.062 83.1337 191.962 83.1908L191.759 83.3087C191.744 83.3172 191.727 83.3251 191.71 83.3307C191.687 83.3382 191.662 83.3443 191.635 83.3476C191.588 83.3537 191.539 83.3518 191.493 83.3424C191.48 83.3401 191.469 83.3364 191.457 83.3331C191.45 83.3307 191.443 83.3279 191.436 83.3247C191.469 83.3368 191.498 83.3349 191.522 83.3228C191.556 83.305 191.577 83.2638 191.577 83.2044V76.1315C191.577 76.0571 191.54 76.0009 191.483 75.978L191.577 75.9232L192.089 75.6279C192.123 75.6846 192.143 75.7487 192.143 75.8058Z" fill="#E0E0E0"/>
<path d="M191.578 75.9237L187.305 77.52C187 77.6333 186.658 77.521 186.481 77.2486L185.795 76.1974L182.01 70.3989L185.658 76.2372L181.991 77.6721C181.992 77.7301 182.013 77.7947 182.047 77.8523L185.668 76.2536L186.466 77.5298C186.649 77.8223 187.019 77.937 187.335 77.7971L187.903 77.5467L191.523 83.3237C191.557 83.3059 191.578 83.2647 191.578 83.2053V83.0873L187.92 77.5387L191.578 75.9237Z" fill="#E0E0E0"/>
</g>
<path d="M200.41 74.6531L199.432 75.4674C199.226 75.7763 198.954 76.1319 198.594 76.5438L195.786 79.787L194.794 80.9336L188.41 84.6215L185.359 87.1533C185.35 87.158 185.34 87.158 185.331 87.158C185.242 87.1721 185.139 87.158 185.064 87.1159L184.779 86.9521C184.779 86.9521 184.774 86.9521 184.774 86.9474C184.671 86.8819 184.648 86.7555 184.727 86.6619C184.732 86.6619 184.732 86.6573 184.732 86.6573L186.959 84.0833L186.964 84.0786C187.404 83.5731 187.881 83.0209 188.382 82.4453C190.479 80.0163 194.471 76.731 197.288 75.1023C198.608 74.3442 199.432 74.0821 199.727 74.2646L199.731 74.2599L200.4 74.6484C200.4 74.6531 200.405 74.6531 200.41 74.6531Z" fill="#455A64"/>
<path d="M199.282 76.9462L197.429 79.085C197.419 79.0943 197.41 79.1131 197.391 79.1318L195.631 81.1582C195.547 81.2565 195.388 81.3875 195.276 81.453L185.467 87.1159C185.434 87.1346 185.396 87.1486 185.359 87.1533C185.35 87.158 185.34 87.158 185.331 87.158C185.644 86.7929 187.095 85.1175 188.869 83.0723H188.874C188.934 82.9975 189.005 82.9226 189.07 82.843C191.167 80.4188 195.159 77.1334 197.976 75.5048C199.263 74.7607 200.087 74.4939 200.4 74.6483C200.4 74.653 200.405 74.653 200.41 74.653C200.765 74.8496 200.414 75.6405 199.282 76.9462Z" fill="#37474F"/>
</svg>
