<svg width="308" height="246" viewBox="0 0 308 246" fill="none" xmlns="http://www.w3.org/2000/svg">
<mask id="mask0_663_102" style="mask-type:luminance" maskUnits="userSpaceOnUse" x="0" y="0" width="308" height="83">
<path d="M0 0H308V83H0V0Z" fill="white"/>
</mask>
<g mask="url(#mask0_663_102)">
<path d="M297.734 30.7498H111.474C110.917 28.5675 110.188 26.4478 109.276 24.3853C108.37 22.3228 107.297 20.3488 106.063 18.4634C104.828 16.5832 103.443 14.8123 101.917 13.1561C100.385 11.4998 98.7344 9.979 96.9531 8.5988C95.1719 7.21859 93.2865 5.98942 91.3021 4.9165C89.3177 3.8488 87.2604 2.94776 85.125 2.21859C82.9948 1.48421 80.8125 0.937338 78.5885 0.567546C76.3646 0.192546 74.1198 0.0102539 71.8646 0.0102539C69.6094 0.0102539 67.3698 0.192546 65.1458 0.567546C62.9219 0.937338 60.7396 1.48421 58.6094 2.21859C56.474 2.94776 54.4167 3.8488 52.4323 4.9165C50.4479 5.98942 48.5625 7.21859 46.7813 8.5988C45 9.979 43.3438 11.4998 41.8177 13.1561C40.2865 14.8123 38.9063 16.5832 37.6719 18.4634C36.4375 20.3488 35.3646 22.3228 34.4531 24.3853C33.5469 26.4478 32.8125 28.5675 32.2604 30.7498H10.2656C9.59375 30.7498 8.92708 30.8175 8.26563 30.9478C7.60417 31.078 6.95833 31.2707 6.33854 31.5311C5.71354 31.7863 5.125 32.104 4.5625 32.479C4 32.8488 3.48438 33.2759 3.00521 33.7498C2.53125 34.229 2.10417 34.7446 1.72917 35.3071C1.35417 35.8644 1.04167 36.453 0.78125 37.078C0.526041 37.6978 0.328125 38.3384 0.197917 38.9998C0.0677073 39.6613 0 40.328 0 40.9998C0 41.6717 0.0677073 42.3384 0.197917 42.9998C0.328125 43.6613 0.526041 44.3019 0.78125 44.9217C1.04167 45.5415 1.35417 46.1353 1.72917 46.6925C2.10417 47.255 2.53125 47.7707 3.00521 48.2498C3.48438 48.7238 4 49.1509 4.5625 49.5207C5.125 49.8957 5.71354 50.2134 6.33854 50.4686C6.95833 50.729 7.60417 50.9217 8.26563 51.0519C8.92708 51.1821 9.59375 51.2498 10.2656 51.2498H32.2604C32.8125 53.4321 33.5469 55.5519 34.4531 57.6144C35.3646 59.6769 36.4375 61.6509 37.6719 63.5363C38.9063 65.4165 40.2865 67.1873 41.8177 68.8436C43.3438 70.4998 45 72.0207 46.7813 73.4009C48.5625 74.7811 50.4479 76.0103 52.4323 77.0832C54.4167 78.1509 56.474 79.0519 58.6094 79.7811C60.7396 80.5155 62.9219 81.0623 65.1458 81.4321C67.3698 81.8071 69.6094 81.9894 71.8646 81.9894C74.1198 81.9894 76.3646 81.8071 78.5885 81.4321C80.8125 81.0623 82.9948 80.5155 85.125 79.7811C87.2604 79.0519 89.3177 78.1509 91.3021 77.0832C93.2865 76.0103 95.1719 74.7811 96.9531 73.4009C98.7344 72.0207 100.385 70.4998 101.917 68.8436C103.443 67.1873 104.828 65.4165 106.063 63.5363C107.297 61.6509 108.37 59.6769 109.276 57.6144C110.188 55.5519 110.917 53.4321 111.474 51.2498H297.734C298.406 51.2498 299.073 51.1821 299.734 51.0519C300.396 50.9217 301.042 50.729 301.661 50.4686C302.286 50.2134 302.875 49.8957 303.438 49.5207C304 49.1509 304.516 48.7238 304.995 48.2498C305.469 47.7707 305.896 47.255 306.271 46.6925C306.646 46.1353 306.958 45.5415 307.219 44.9217C307.474 44.3019 307.672 43.6613 307.802 42.9998C307.932 42.3384 308 41.6717 308 40.9998C308 40.328 307.932 39.6613 307.802 38.9998C307.672 38.3384 307.474 37.6978 307.219 37.078C306.958 36.453 306.646 35.8644 306.271 35.3071C305.896 34.7446 305.469 34.229 304.995 33.7498C304.516 33.2759 304 32.8488 303.438 32.479C302.875 32.104 302.286 31.7863 301.661 31.5311C301.042 31.2707 300.396 31.078 299.734 30.9478C299.073 30.8175 298.406 30.7498 297.734 30.7498ZM71.8646 61.4998C70.5208 61.4998 69.1823 61.3696 67.8594 61.104C66.5365 60.8436 65.2552 60.453 64.0104 59.9373C62.7656 59.4217 61.5781 58.7915 60.4583 58.0467C59.3385 57.2967 58.3021 56.4478 57.349 55.4946C56.3958 54.5415 55.5417 53.5103 54.7917 52.3905C54.0469 51.2707 53.4115 50.0884 52.8958 48.8436C52.3802 47.5988 51.9896 46.3175 51.7292 44.9998C51.4635 43.6769 51.3333 42.3436 51.3333 40.9998C51.3333 39.6561 51.4635 38.3228 51.7292 36.9998C51.9896 35.6821 52.3802 34.4009 52.8958 33.1561C53.4115 31.9113 54.0469 30.729 54.7917 29.6092C55.5417 28.4894 56.3958 27.4582 57.349 26.505C58.3021 25.5519 59.3385 24.703 60.4583 23.953C61.5781 23.2082 62.7656 22.578 64.0104 22.0623C65.2552 21.5467 66.5365 21.1561 67.8594 20.8957C69.1823 20.63 70.5208 20.4998 71.8646 20.4998C73.2135 20.4998 74.5521 20.63 75.875 20.8957C77.1927 21.1561 78.4792 21.5467 79.724 22.0623C80.9688 22.578 82.151 23.2082 83.276 23.953C84.3958 24.703 85.4323 25.5519 86.3854 26.505C87.3385 27.4582 88.1927 28.4894 88.9375 29.6092C89.6875 30.729 90.3229 31.9113 90.8385 33.1561C91.3542 34.4009 91.7448 35.6821 92.0052 36.9998C92.2708 38.3228 92.401 39.6561 92.401 40.9998C92.401 42.3436 92.2708 43.6769 92.0052 44.9998C91.7448 46.3175 91.3542 47.5988 90.8385 48.8436C90.3229 50.0884 89.6875 51.2707 88.9375 52.3905C88.1927 53.5103 87.3385 54.5415 86.3854 55.4946C85.4323 56.4478 84.3958 57.2967 83.276 58.0467C82.151 58.7915 80.9688 59.4217 79.724 59.9373C78.4792 60.453 77.1927 60.8436 75.875 61.104C74.5521 61.3696 73.2135 61.4998 71.8646 61.4998Z" fill="black"/>
</g>
<mask id="mask1_663_102" style="mask-type:luminance" maskUnits="userSpaceOnUse" x="0" y="163" width="308" height="83">
<path d="M0 163H308V246H0V163Z" fill="white"/>
</mask>
<g mask="url(#mask1_663_102)">
<path d="M297.734 194.75H162.807C162.25 192.568 161.521 190.448 160.609 188.385C159.703 186.323 158.63 184.349 157.396 182.463C156.161 180.583 154.776 178.812 153.25 177.156C151.719 175.5 150.068 173.979 148.286 172.599C146.505 171.219 144.62 169.989 142.635 168.917C140.651 167.849 138.594 166.948 136.458 166.219C134.328 165.484 132.146 164.937 129.922 164.562C127.698 164.193 125.453 164.01 123.198 164.01C120.943 164.01 118.703 164.193 116.479 164.562C114.255 164.937 112.073 165.484 109.943 166.219C107.807 166.948 105.75 167.849 103.766 168.917C101.781 169.989 99.8958 171.219 98.1146 172.599C96.3333 173.979 94.6771 175.5 93.151 177.156C91.6198 178.812 90.2396 180.583 89.0052 182.463C87.7708 184.349 86.6979 186.323 85.7865 188.385C84.8802 190.448 84.1458 192.568 83.5938 194.75H10.2656C9.59375 194.75 8.92708 194.818 8.26563 194.948C7.60417 195.078 6.95833 195.271 6.33854 195.531C5.71354 195.786 5.125 196.104 4.5625 196.479C4 196.849 3.48438 197.276 3.00521 197.75C2.53125 198.229 2.10417 198.745 1.72917 199.307C1.35417 199.864 1.04167 200.453 0.78125 201.078C0.526041 201.698 0.328125 202.338 0.197917 203C0.0677073 203.661 0 204.328 0 205C0 205.672 0.0677073 206.338 0.197917 207C0.328125 207.661 0.526041 208.302 0.78125 208.922C1.04167 209.542 1.35417 210.135 1.72917 210.693C2.10417 211.255 2.53125 211.771 3.00521 212.25C3.48438 212.724 4 213.151 4.5625 213.521C5.125 213.896 5.71354 214.213 6.33854 214.469C6.95833 214.729 7.60417 214.922 8.26563 215.052C8.92708 215.182 9.59375 215.25 10.2656 215.25H83.5938C84.1458 217.432 84.8802 219.552 85.7865 221.614C86.6979 223.677 87.7708 225.651 89.0052 227.536C90.2396 229.417 91.6198 231.187 93.151 232.844C94.6771 234.5 96.3333 236.021 98.1146 237.401C99.8958 238.781 101.781 240.01 103.766 241.083C105.75 242.151 107.807 243.052 109.943 243.781C112.073 244.515 114.255 245.062 116.479 245.432C118.703 245.807 120.943 245.989 123.198 245.989C125.453 245.989 127.698 245.807 129.922 245.432C132.146 245.062 134.328 244.515 136.458 243.781C138.594 243.052 140.651 242.151 142.635 241.083C144.62 240.01 146.505 238.781 148.286 237.401C150.068 236.021 151.719 234.5 153.25 232.844C154.776 231.187 156.161 229.417 157.396 227.536C158.63 225.651 159.703 223.677 160.609 221.614C161.521 219.552 162.25 217.432 162.807 215.25H297.734C298.406 215.25 299.073 215.182 299.734 215.052C300.396 214.922 301.042 214.729 301.661 214.469C302.286 214.213 302.875 213.896 303.438 213.521C304 213.151 304.516 212.724 304.995 212.25C305.469 211.771 305.896 211.255 306.271 210.693C306.646 210.135 306.958 209.542 307.219 208.922C307.474 208.302 307.672 207.661 307.802 207C307.932 206.338 308 205.672 308 205C308 204.328 307.932 203.661 307.802 203C307.672 202.338 307.474 201.698 307.219 201.078C306.958 200.453 306.646 199.864 306.271 199.307C305.896 198.745 305.469 198.229 304.995 197.75C304.516 197.276 304 196.849 303.438 196.479C302.875 196.104 302.286 195.786 301.661 195.531C301.042 195.271 300.396 195.078 299.734 194.948C299.073 194.818 298.406 194.75 297.734 194.75ZM123.198 225.5C121.854 225.5 120.516 225.37 119.193 225.104C117.87 224.844 116.589 224.453 115.344 223.937C114.099 223.422 112.911 222.792 111.792 222.047C110.672 221.297 109.635 220.448 108.682 219.495C107.729 218.542 106.875 217.51 106.125 216.39C105.38 215.271 104.745 214.088 104.229 212.844C103.714 211.599 103.323 210.318 103.063 209C102.797 207.677 102.667 206.344 102.667 205C102.667 203.656 102.797 202.323 103.063 201C103.323 199.682 103.714 198.401 104.229 197.156C104.745 195.911 105.38 194.729 106.125 193.609C106.875 192.489 107.729 191.458 108.682 190.505C109.635 189.552 110.672 188.703 111.792 187.953C112.911 187.208 114.099 186.578 115.344 186.062C116.589 185.547 117.87 185.156 119.193 184.896C120.516 184.63 121.854 184.5 123.198 184.5C124.547 184.5 125.885 184.63 127.208 184.896C128.526 185.156 129.813 185.547 131.057 186.062C132.302 186.578 133.484 187.208 134.609 187.953C135.729 188.703 136.766 189.552 137.719 190.505C138.672 191.458 139.526 192.489 140.271 193.609C141.021 194.729 141.656 195.911 142.172 197.156C142.688 198.401 143.078 199.682 143.339 201C143.604 202.323 143.734 203.656 143.734 205C143.734 206.344 143.604 207.677 143.339 209C143.078 210.318 142.688 211.599 142.172 212.844C141.656 214.088 141.021 215.271 140.271 216.39C139.526 217.51 138.672 218.542 137.719 219.495C136.766 220.448 135.729 221.297 134.609 222.047C133.484 222.792 132.302 223.422 131.057 223.937C129.813 224.453 128.526 224.844 127.208 225.104C125.885 225.37 124.547 225.5 123.198 225.5Z" fill="black"/>
</g>
<mask id="mask2_663_102" style="mask-type:luminance" maskUnits="userSpaceOnUse" x="0" y="81" width="308" height="84">
<path d="M0 81.6665H308V164.333H0V81.6665Z" fill="white"/>
</mask>
<g mask="url(#mask2_663_102)">
<path d="M297.734 112.75H286.01C285.453 110.568 284.719 108.448 283.813 106.385C282.901 104.323 281.833 102.349 280.594 100.463C279.359 98.5832 277.979 96.8123 276.448 95.1561C274.922 93.4998 273.266 91.979 271.484 90.5988C269.703 89.2186 267.823 87.9894 265.839 86.9165C263.854 85.8488 261.792 84.9478 259.661 84.2186C257.526 83.4842 255.344 82.9373 253.12 82.5675C250.896 82.1925 248.656 82.0103 246.401 82.0103C244.146 82.0103 241.906 82.1925 239.677 82.5675C237.453 82.9373 235.276 83.4842 233.141 84.2186C231.005 84.9478 228.948 85.8488 226.964 86.9165C224.979 87.9894 223.099 89.2186 221.318 90.5988C219.536 91.979 217.88 93.4998 216.349 95.1561C214.823 96.8123 213.438 98.5832 212.203 100.463C210.969 102.349 209.896 104.323 208.99 106.385C208.078 108.448 207.349 110.568 206.792 112.75H10.2656C9.59375 112.75 8.92708 112.818 8.26563 112.948C7.60417 113.078 6.95833 113.271 6.33854 113.531C5.71354 113.786 5.125 114.104 4.5625 114.479C4 114.849 3.48438 115.276 3.00521 115.75C2.53125 116.229 2.10417 116.745 1.72917 117.307C1.35417 117.864 1.04167 118.453 0.78125 119.078C0.526041 119.698 0.328125 120.338 0.197917 121C0.0677073 121.661 0 122.328 0 123C0 123.672 0.0677073 124.338 0.197917 125C0.328125 125.661 0.526041 126.302 0.78125 126.922C1.04167 127.542 1.35417 128.135 1.72917 128.693C2.10417 129.255 2.53125 129.771 3.00521 130.25C3.48438 130.724 4 131.151 4.5625 131.521C5.125 131.896 5.71354 132.213 6.33854 132.469C6.95833 132.729 7.60417 132.922 8.26563 133.052C8.92708 133.182 9.59375 133.25 10.2656 133.25H206.792C207.349 135.432 208.078 137.552 208.99 139.614C209.896 141.677 210.969 143.651 212.203 145.536C213.438 147.417 214.823 149.187 216.349 150.844C217.88 152.5 219.536 154.021 221.318 155.401C223.099 156.781 224.979 158.01 226.964 159.083C228.948 160.151 231.005 161.052 233.141 161.781C235.276 162.515 237.453 163.062 239.677 163.432C241.906 163.807 244.146 163.989 246.401 163.989C248.656 163.989 250.896 163.807 253.12 163.432C255.344 163.062 257.526 162.515 259.661 161.781C261.792 161.052 263.854 160.151 265.839 159.083C267.823 158.01 269.703 156.781 271.484 155.401C273.266 154.021 274.922 152.5 276.448 150.844C277.979 149.187 279.359 147.417 280.594 145.536C281.833 143.651 282.901 141.677 283.813 139.614C284.719 137.552 285.453 135.432 286.01 133.25H297.734C298.406 133.25 299.073 133.182 299.734 133.052C300.396 132.922 301.042 132.729 301.661 132.469C302.286 132.213 302.875 131.896 303.438 131.521C304 131.151 304.516 130.724 304.995 130.25C305.469 129.771 305.896 129.255 306.271 128.693C306.646 128.135 306.958 127.542 307.219 126.922C307.474 126.302 307.672 125.661 307.802 125C307.932 124.338 308 123.672 308 123C308 122.328 307.932 121.661 307.802 121C307.672 120.338 307.474 119.698 307.219 119.078C306.958 118.453 306.646 117.864 306.271 117.307C305.896 116.745 305.469 116.229 304.995 115.75C304.516 115.276 304 114.849 303.438 114.479C302.875 114.104 302.286 113.786 301.661 113.531C301.042 113.271 300.396 113.078 299.734 112.948C299.073 112.818 298.406 112.75 297.734 112.75ZM246.401 143.5C245.052 143.5 243.719 143.37 242.396 143.104C241.073 142.844 239.786 142.453 238.542 141.937C237.297 141.422 236.115 140.792 234.995 140.047C233.87 139.297 232.833 138.448 231.88 137.495C230.927 136.542 230.078 135.51 229.328 134.39C228.578 133.271 227.948 132.088 227.427 130.844C226.911 129.599 226.526 128.318 226.26 127C226 125.677 225.865 124.344 225.865 123C225.865 121.656 226 120.323 226.26 119C226.526 117.682 226.911 116.401 227.427 115.156C227.948 113.911 228.578 112.729 229.328 111.609C230.078 110.489 230.927 109.458 231.88 108.505C232.833 107.552 233.87 106.703 234.995 105.953C236.115 105.208 237.297 104.578 238.542 104.062C239.786 103.547 241.073 103.156 242.396 102.896C243.719 102.63 245.052 102.5 246.401 102.5C247.75 102.5 249.083 102.63 250.406 102.896C251.729 103.156 253.01 103.547 254.255 104.062C255.505 104.578 256.688 105.208 257.807 105.953C258.927 106.703 259.964 107.552 260.917 108.505C261.875 109.458 262.724 110.489 263.474 111.609C264.224 112.729 264.854 113.911 265.37 115.156C265.885 116.401 266.276 117.682 266.536 119C266.802 120.323 266.932 121.656 266.932 123C266.932 124.344 266.802 125.677 266.536 127C266.276 128.318 265.885 129.599 265.37 130.844C264.854 132.088 264.224 133.271 263.474 134.39C262.724 135.51 261.875 136.542 260.917 137.495C259.964 138.448 258.927 139.297 257.807 140.047C256.688 140.792 255.505 141.422 254.255 141.937C253.01 142.453 251.729 142.844 250.406 143.104C249.083 143.37 247.75 143.5 246.401 143.5Z" fill="black"/>
</g>
</svg>
