<svg width="132" height="124" viewBox="0 0 132 124" fill="none" xmlns="http://www.w3.org/2000/svg">
<path d="M65.5804 7.45117C56.6526 -6.89494 35.9113 0.997991 39.4972 18.1862C42.1704 28.8582 56.8405 36.4963 64.1353 41.3765C64.7058 41.7248 65.3209 41.9094 65.9809 41.9258C66.6408 41.9445 67.2626 41.7926 67.8487 41.477C77.6355 36.1808 100.227 22.5359 91.3393 6.73597C85.7782 -2.94731 72.2757 -1.70622 66.8801 7.45117C66.8063 7.56102 66.7123 7.6475 66.596 7.71061C66.4819 7.77138 66.3589 7.8041 66.2314 7.8041C66.1017 7.8041 65.9786 7.77138 65.8645 7.71061C65.7482 7.6475 65.6543 7.56102 65.5804 7.45117Z" fill="white"/>
<mask id="mask0_657_16" style="mask-type:luminance" maskUnits="userSpaceOnUse" x="0" y="52" width="132" height="72">
<path d="M0 52.0557H132V123.258H0V52.0557Z" fill="white"/>
</mask>
<g mask="url(#mask0_657_16)">
<path d="M117.952 94.9915C114.317 92.5327 110.811 89.6859 106.637 88.2812C107.552 84.8127 103.789 83.4758 101.152 83.8497C98.3289 84.1559 95.3313 85.5863 93.0362 87.5099C93.2218 85.2755 93.5775 83.0738 94.101 80.9001C94.3493 79.8133 94.79 78.6493 94.7094 77.5134C94.5752 75.6529 92.9758 75.106 91.4099 75.272C88.5174 75.5805 85.6563 77.4994 84.7235 80.3812C79.9386 81.059 77.3952 85.799 76.2409 90.6722C72.8049 90.2141 70.069 93.36 68.6776 96.3564C65.8188 99.687 62.0271 102.218 57.5956 100.809C63.112 94.6853 69.729 89.8588 76.5205 85.4227C77.214 84.9202 76.8135 83.5295 75.9009 83.8918C74.7063 84.3779 73.5654 84.9763 72.4783 85.6845C72.2546 84.8127 71.8944 84.0063 71.4 83.2677C70.9034 82.5292 70.3017 81.9004 69.5926 81.3816C70.7916 80.5729 72.0734 80.0493 73.2903 79.2851C73.9189 78.9064 73.4782 77.9902 72.8161 78.1188C70.9213 78.488 69.1742 79.3972 67.4965 80.3695C65.0582 79.7478 62.3112 81.6036 62.13 84.2517C56.797 88.2672 51.8421 92.7337 47.2607 97.6513C44.6166 100.521 39.3194 101.332 36.9706 98.516C48.2047 91.2472 56.1102 79.6614 68.4293 74.1735C69.1765 73.8416 68.6441 72.5374 67.8746 72.8015C61.4499 75.0102 56.24 79.5562 51.2314 84.1372C49.0928 86.0958 46.9834 88.1199 44.8269 90.0832C44.073 90.7774 43.2275 91.3196 42.2924 91.7076C41.3551 92.0956 40.3842 92.3059 39.3776 92.3387C37.5477 92.3854 35.8342 91.9413 35.1743 91.1093C41.6839 86.2735 48.2361 81.3138 54.2312 75.7581C55.5846 74.898 56.7299 73.7364 58.1146 72.9347C59.4053 72.1634 60.8281 71.6282 62.1591 70.9387C65.5772 70.1861 69.1273 68.9988 71.9526 66.8952C77.2654 65.2475 83.0391 63.4337 88.6248 63.3823C93.2174 63.3309 97.7271 64.9132 102.056 66.36C110.948 69.3774 119.643 72.9184 128.141 76.9829C129.316 77.5391 130.345 75.7277 129.161 75.1668C122.316 71.9274 115.346 68.9871 108.254 66.3436C101.347 63.782 93.7229 60.6103 86.267 61.4424C82.4172 61.9122 78.6345 62.7279 74.9188 63.8848C75.6503 62.8401 76.2297 61.7112 76.657 60.4981C77.082 59.2851 77.3415 58.0323 77.431 56.7445C77.5898 54.3932 75.496 52.9348 73.6079 52.1775C73.4133 52.1191 73.2165 52.1167 73.0196 52.1705C72.8228 52.2242 72.655 52.3271 72.5141 52.479C68.4539 56.443 62.3984 57.6911 56.9871 58.0043C53.8643 58.1609 50.7415 57.5999 47.6813 58.4484C42.8986 59.818 39.6192 64.1115 35.3309 66.4769C25.8148 71.7287 18.9092 72.8155 15.4821 73.6896C15.3994 72.6963 15.4888 71.2542 14.178 71.4202C9.79795 72.1377 4.8654 73.1007 0.677764 74.6456C0.469724 74.7134 0.308662 74.8419 0.190101 75.0312C0.0715414 75.2206 0.0245646 75.4286 0.0514084 75.6529H0.0446974V122.132C0.0111425 122.272 0.0111425 122.415 0.0446974 122.555C0.615129 124.376 4.30168 121.117 5.25911 120.643C6.47379 119.897 14.8535 114.977 17.5648 113.383C18.511 112.872 18.4573 111.745 18.4596 110.794C33.4675 103.595 49.7304 117.046 68.9573 115.529C70.2525 115.396 71.6305 113.776 72.3463 112.93C73.0509 112.098 74.3171 110.719 74.3775 109.44C74.5631 108.751 74.7399 108.059 74.9121 107.363C77.4287 105.694 80.7641 105.046 82.7259 102.599C85.3432 103.438 88.2826 102.267 89.9446 100.084C91.8975 99.7852 93.6826 100.61 95.6065 99.673C97.4229 98.7918 98.5794 97.1558 99.812 95.5875C101.465 93.4979 103.335 91.6422 105.418 90.0201C107.313 90.6932 109.163 91.4482 110.84 92.6098C117.491 96.8846 123.768 101.784 130.273 106.266C131.183 106.83 132.291 105.441 131.434 104.7C127.132 101.209 122.437 98.2239 117.952 94.9915ZM65.774 82.2767C67.5256 81.8888 69.125 83.3098 70.0042 84.7192C70.2838 85.4905 70.8318 86.2665 69.9863 86.9373C69.8476 87.0541 69.691 87.1242 69.5143 87.1453C69.3375 87.1663 69.1675 87.1359 69.0087 87.0541C68.1161 85.196 66.2348 84.0227 64.1679 83.7469C64.3289 83.3986 64.5504 83.0971 64.8278 82.8424C65.1074 82.5876 65.4228 82.4006 65.774 82.2767ZM56.4905 91.5417C58.6403 89.541 60.8884 87.6688 63.235 85.9229C65.2998 85.3129 67.5122 87.012 67.6464 89.188C62.8234 92.7664 58.647 97.1441 54.267 101.255C51.6788 103.7 48.9966 103.967 45.8939 102.349C49.1465 98.488 52.8062 94.9213 56.4883 91.5417H56.4905ZM18.2247 108.571C17.0368 97.6676 16.3322 86.7246 15.6499 75.7792L18.4752 75.1107C19.4975 85.7429 20.7279 96.3494 22.164 106.93C20.8531 107.482 19.54 108.029 18.2247 108.571ZM72.5409 108.751C71.9727 110.749 70.512 112.43 68.8365 113.505C60.5037 113.629 52.3969 112.273 44.5204 109.443C37.8945 107.18 31.2372 105.205 24.3562 106.395C22.9179 95.6623 21.5712 85.3175 20.5377 74.5357C29.4342 73.2573 36.8431 68.5103 43.7956 62.8705C47.4643 59.624 52.0926 60.2364 56.5465 60.2457C62.5103 59.991 68.8096 58.6914 73.5565 54.6924C75.2477 55.5315 75.5027 56.4266 74.9568 58.259C73.6012 65.5303 66.0246 67.8255 59.8326 69.139C58.8953 69.1974 58.1191 69.6111 57.2757 70.2843C54.6137 72.5491 51.8533 74.7788 48.6096 76.0737C47.0348 76.7141 45.2832 76.845 43.7576 77.5391C43.0149 77.878 43.2521 79.1238 43.9813 79.3061C44.9947 79.5562 46.14 79.3762 47.2138 79.084C42.6168 82.7629 37.975 86.374 33.2863 89.9219C33.1744 89.9944 33.0783 90.0879 32.9977 90.2001C32.9194 90.3123 32.8635 90.4338 32.8299 90.5694C32.7964 90.7026 32.7874 90.8381 32.8031 90.976C32.8188 91.1139 32.859 91.2448 32.9217 91.3664C34.2191 94.0659 36.8878 94.8045 39.561 94.5614C38.0936 95.716 36.5724 96.7818 34.9953 97.7634C34.888 97.8312 34.7985 97.9177 34.7224 98.0205C34.6486 98.1257 34.5972 98.2403 34.5636 98.3665C34.5323 98.4903 34.5256 98.6189 34.5412 98.7474C34.5569 98.876 34.5949 98.9975 34.6553 99.1097C35.0423 99.7454 35.5143 100.302 36.0758 100.776C36.6373 101.251 37.2569 101.62 37.9325 101.884C38.6797 103.055 41.4669 103.406 42.7465 103.352C43.5742 105.275 45.9633 106.243 47.8804 106.596C49.1957 106.844 50.5133 106.848 51.8309 106.615C53.1485 106.381 54.39 105.92 55.551 105.231C56.0521 104.927 56.5934 104.268 57.1616 104.147C57.8506 103.997 58.8394 104.348 59.553 104.378C62.2799 104.474 64.5079 104.053 66.9238 102.321C66.5816 103.885 65.9932 105.341 65.1544 106.689C65.085 106.823 65.0627 106.963 65.0828 107.112C65.1029 107.262 65.1656 107.391 65.2685 107.498C65.3714 107.606 65.4944 107.669 65.6376 107.69C65.7807 107.713 65.9172 107.687 66.0447 107.615C70.72 105.105 67.2907 94.3627 75.8919 92.528C75.8897 92.528 73.8137 104.203 72.5409 108.751ZM78.3235 103.492C77.4735 103.908 76.4019 104.312 75.4982 104.89C78.4063 82.1879 84.4327 82.84 84.4327 82.84C84.5379 83.3776 84.2963 84.1699 84.3499 84.7355C84.0681 87.0378 83.7862 89.34 83.5044 91.6422C82.8288 96.4359 83.4171 101.356 78.3235 103.492ZM85.0278 100.734C84.6318 100.762 84.2381 100.755 83.8444 100.713C84.8667 98.2426 84.9204 95.3818 85.2515 92.7453C85.6138 89.5339 86.0903 86.3225 86.3968 83.1088C86.493 82.639 86.4863 82.1692 86.3789 81.7018C86.54 81.0777 86.7502 80.4747 87.012 79.8881C88.1662 78.3992 89.7344 77.3498 91.7275 77.247C92.7632 77.1909 92.8013 77.8266 92.5888 78.7522C92.3651 79.7338 92.0989 80.7061 91.8953 81.6924C90.1057 87.4631 92.3762 99.3294 85.0278 100.734ZM103.798 88.8047C101.358 90.782 99.3937 93.0562 97.4385 95.5314C95.6221 97.9317 93.9757 98.6867 91.081 98.287C92.3405 95.7791 92.6425 92.8552 92.855 89.9523C95.3671 88.5196 97.6265 86.6287 100.505 86.0047C101.751 85.771 104.389 85.5162 104.812 87.1406C104.953 87.9493 104.331 88.3723 103.798 88.8047Z" fill="white"/>
</g>
</svg>
