<?xml version="1.0" standalone="no"?>
<!DOCTYPE svg PUBLIC "-//W3C//DTD SVG 20010904//EN"
 "http://www.w3.org/TR/2001/REC-SVG-20010904/DTD/svg10.dtd">
<svg version="1.0" xmlns="http://www.w3.org/2000/svg"
 width="500.000000pt" height="500.000000pt" viewBox="0 0 500.000000 500.000000"
 preserveAspectRatio="xMidYMid meet">

<g transform="translate(0.000000,500.000000) scale(0.100000,-0.100000)"
fill="#000000" stroke="none">
<path d="M0 2500 l0 -2500 2500 0 2500 0 0 2500 0 2500 -2500 0 -2500 0 0
-2500z m2368 1770 c-2 -51 -7 -75 -21 -92 -10 -13 -16 -17 -12 -10 3 6 1 12
-6 12 -7 0 -9 -10 -7 -25 3 -14 0 -32 -6 -40 -10 -14 -15 -14 -48 0 -46 19
-72 19 -38 1 23 -13 25 -19 22 -61 l-4 -48 -50 6 c-28 4 -61 13 -74 22 l-24
15 20 -32 c11 -18 27 -46 35 -63 l16 -30 -23 30 c-51 67 -62 74 -104 65 -21
-5 -39 -8 -40 -7 -1 1 8 22 20 47 22 47 56 66 56 33 1 -16 2 -16 10 -2 13 22
41 136 44 176 3 46 14 52 42 19 24 -27 26 -27 44 -11 12 11 37 18 69 18 27 0
48 4 45 9 -7 12 16 49 26 43 6 -3 9 -37 8 -75z m360 -102 c7 -7 12 -27 12 -45
0 -31 -1 -32 -25 -23 -16 6 -25 6 -25 0 0 -5 11 -12 24 -16 21 -5 24 -10 19
-40 -6 -33 9 -64 29 -64 6 0 5 7 -3 16 -11 13 -9 14 12 9 17 -4 30 -1 38 9 18
21 31 20 31 -1 0 -16 -2 -16 -11 -3 -9 12 -10 11 -6 -7 4 -17 -5 -30 -38 -55
-59 -45 -68 -107 -16 -108 23 -1 51 -24 43 -36 -4 -6 -18 -18 -32 -27 -13 -9
-19 -17 -12 -17 6 0 12 -12 13 -27 0 -26 2 -24 15 11 16 45 41 76 61 76 16 0
16 -1 -2 -36 -8 -16 -14 -40 -14 -54 1 -21 2 -19 11 10 17 63 54 75 80 26 13
-25 28 -317 16 -330 -4 -6 -8 -22 -8 -37 0 -14 -11 -42 -24 -62 -24 -36 -25
-36 -4 -43 13 -4 26 0 37 10 13 14 16 41 16 163 l0 145 18 -58 c10 -33 33
-140 53 -239 19 -99 39 -202 45 -230 14 -67 23 -226 15 -259 -4 -18 -13 -26
-29 -26 -47 0 -167 50 -167 69 0 16 -51 295 -60 331 -14 53 -3 -58 21 -209 21
-131 26 -144 68 -164 29 -14 29 -10 50 -362 11 -173 22 -235 58 -316 l20 -46
-56 -31 c-60 -33 -131 -51 -131 -34 0 6 -9 64 -19 129 -11 65 -23 162 -26 216
-4 54 -9 96 -12 93 -7 -7 15 -275 30 -374 l13 -79 -81 -11 c-45 -7 -95 -12
-113 -12 l-32 0 -1 73 c-2 124 -17 144 -18 24 l-1 -109 -42 7 c-88 13 -100 17
-94 31 3 7 10 60 16 117 11 103 0 546 -16 641 -5 29 -4 37 5 32 6 -4 14 0 17
9 4 9 13 14 20 11 10 -4 14 3 14 22 0 22 2 24 11 12 9 -13 10 -13 6 0 -2 8
-18 16 -35 18 -18 2 -32 8 -32 15 0 6 -7 2 -15 -9 -14 -18 -14 -18 -15 0 0 12
-5 16 -15 12 -17 -6 -21 9 -5 19 6 3 10 11 10 17 0 6 -6 5 -16 -2 -13 -12 -14
-11 -4 11 16 35 48 55 56 34 4 -9 19 -22 35 -31 18 -9 29 -23 30 -37 0 -12 7
2 15 32 8 30 12 56 10 59 -3 2 -8 -7 -12 -22 -7 -31 -10 -32 -52 -6 -25 16
-32 25 -26 38 10 23 8 39 -9 97 -8 28 -16 41 -16 30 -2 -19 -2 -19 -12 -2 -8
14 -6 26 10 52 21 35 17 45 -9 23 -8 -8 -7 -2 3 15 11 17 13 27 6 27 -8 0 -8
4 1 15 6 8 9 19 5 25 -4 6 -2 17 4 24 9 10 8 15 -5 20 -11 4 -15 2 -11 -8 3
-7 0 -19 -6 -25 -8 -8 -7 -11 4 -11 11 -1 11 -3 -2 -13 -20 -15 -31 -156 -17
-240 7 -46 6 -62 -7 -80 -21 -30 -19 -64 5 -72 11 -3 20 -13 20 -21 0 -19 -17
-18 -30 4 -10 15 -11 15 -3 -3 10 -24 4 -333 -7 -395 -5 -25 -6 -156 -3 -292
l6 -246 -64 -6 c-111 -11 -104 -18 -104 103 0 58 -3 147 -8 196 -4 50 -11 158
-16 240 -12 206 -32 356 -45 352 -6 -2 -15 -30 -19 -63 -4 -32 -19 -115 -33
-184 -13 -69 -29 -147 -34 -175 -6 -38 -7 -27 -3 47 6 104 -1 128 -38 128 -11
0 -19 2 -19 4 0 9 -31 173 -36 189 -19 62 -2 -87 21 -190 4 -15 1 -23 -8 -23
-9 0 -17 32 -26 113 -6 61 -12 126 -12 142 0 28 -1 28 -9 8 -5 -13 -11 -23
-14 -23 -2 0 -2 10 1 23 4 19 3 20 -7 5 -6 -10 -15 -18 -20 -18 -5 0 -7 8 -3
18 5 14 3 13 -10 -3 l-16 -20 -1 20 c0 15 -2 17 -9 6 -11 -16 -16 -7 -25 43
-7 37 -6 38 16 32 13 -3 38 -6 56 -6 23 0 32 -5 33 -17 2 -30 18 60 18 104 1
65 -18 61 -21 -4 l-3 -58 -57 -3 -58 -3 0 92 c0 78 -5 109 -35 200 -35 109
-43 154 -26 161 5 2 5 29 0 63 -4 33 -9 130 -10 215 -2 132 0 162 16 200 39
94 61 118 145 160 44 21 80 35 80 30 0 -5 -5 -12 -10 -15 -24 -15 5 -26 49
-20 l48 6 43 -58 c24 -32 45 -60 47 -62 4 -5 79 35 112 60 18 15 28 16 43 8
19 -10 20 -8 16 25 -2 20 -2 36 0 36 3 0 29 -14 59 -31 60 -34 83 -70 104
-160 11 -50 15 -55 36 -51 13 2 23 0 23 -6 0 -20 61 -32 123 -24 l62 7 -84 5
c-47 3 -86 10 -88 15 -1 6 9 17 25 26 18 10 31 29 38 57 10 38 10 41 -10 44
-46 7 -55 165 -10 182 8 3 12 10 9 16 -3 5 -1 10 4 10 6 0 11 5 11 12 0 15 40
58 55 58 6 0 16 -5 23 -12z m-423 -118 c8 -16 20 -41 25 -56 9 -23 8 -25 -11
-19 -12 4 -27 1 -37 -8 -9 -8 -28 -20 -41 -27 -26 -13 -25 -10 11 42 10 14 18
42 18 62 0 44 14 46 35 6z m631 -738 c-23 -24 -31 -7 -9 21 14 19 19 22 21 10
2 -8 -3 -22 -12 -31z m-470 -284 c-16 -42 -21 -34 -17 23 3 47 4 49 15 28 9
-17 9 -32 2 -51z m9 -165 l-6 -28 15 25 c9 15 15 19 15 10 1 -26 -14 -39 -37
-34 -21 6 -21 7 -4 30 22 30 24 30 17 -3z m42 -5 c-3 -8 -6 -5 -6 6 -1 11 2
17 5 13 3 -3 4 -12 1 -19z m-680 -90 c-3 -7 -5 -2 -5 12 0 14 2 19 5 13 2 -7
2 -19 0 -25z m101 19 c6 -7 15 -56 19 -110 l9 -97 -43 0 -43 0 0 110 c0 109 0
110 24 110 13 0 28 -6 34 -13z m-120 -141 c-8 -60 -16 -86 -26 -86 -8 0 -11 7
-9 18 3 9 13 50 22 90 10 40 19 71 22 69 2 -3 -2 -43 -9 -91z m161 -87 c13 -9
26 -9 50 -1 42 15 46 4 32 -99 -6 -45 -11 -135 -11 -200 0 -72 -4 -120 -11
-124 -5 -4 -31 -11 -57 -15 l-47 -9 54 3 54 3 -6 -84 c-2 -46 -8 -87 -11 -90
-3 -3 -39 -8 -80 -11 -73 -4 -75 -4 -81 20 -3 13 -5 51 -3 83 l3 60 35 6 c21
3 -11 7 -78 10 -117 4 -141 14 -125 49 3 8 10 100 15 205 5 104 10 191 12 193
2 2 30 -1 62 -7 32 -6 80 -10 108 -10 l51 1 -55 9 c-82 14 -83 17 -2 18 40 1
81 -4 91 -10z m1035 -576 c3 -38 8 -107 11 -154 l7 -87 -42 -7 c-23 -4 -44 -5
-46 -2 -3 3 -7 49 -9 104 -2 54 -8 115 -14 136 -9 37 -9 37 33 56 22 11 44 20
47 20 4 1 10 -29 13 -66z m-309 -42 c-3 -22 -1 -58 6 -82 9 -35 21 -130 15
-129 -30 4 -82 32 -84 47 -3 20 -31 149 -38 175 -5 18 13 24 74 27 l34 1 -7
-39z m-705 -123 c0 -97 0 -99 -21 -87 -12 6 -31 9 -44 7 -22 -5 -22 -3 -23 88
l0 92 44 -1 44 0 0 -99z m351 90 c0 -7 2 -45 4 -85 l4 -72 -23 10 c-19 9 -29
7 -51 -7 l-28 -18 6 48 c4 27 7 68 7 92 l0 44 40 0 c25 0 40 -5 41 -12z m-65
-166 c16 8 34 8 56 1 l33 -10 -27 -11 c-38 -16 -35 -23 4 -11 40 11 38 11 38
-1 0 -5 -8 -10 -17 -10 -10 0 -25 -5 -33 -10 -11 -7 -2 -9 30 -5 41 4 42 4 13
-5 -18 -6 -35 -16 -39 -22 -5 -8 -2 -9 12 -3 10 4 30 8 44 9 22 1 25 -3 28
-41 3 -35 0 -42 -18 -48 -69 -22 -154 46 -163 128 -3 33 -1 45 5 39 7 -7 18
-7 34 0z m404 -17 c25 -13 28 -19 21 -38 -5 -12 -15 -20 -23 -17 -7 2 -34 5
-60 5 -51 0 -57 8 -32 43 18 26 53 28 94 7z m-715 -7 c22 -10 28 -9 36 3 6 10
9 4 9 -21 0 -30 -8 -42 -56 -84 -43 -38 -65 -50 -98 -53 -29 -4 -46 -1 -51 7
-6 10 -2 11 16 7 17 -4 41 3 77 24 28 16 52 32 52 35 0 2 -20 -7 -45 -21 -28
-17 -55 -25 -75 -23 l-30 3 26 39 c24 35 29 38 60 33 19 -3 34 -2 34 3 0 5
-12 10 -27 12 l-28 3 25 23 c27 25 39 27 75 10z m1093 -16 c6 -9 12 -31 12
-49 0 -30 -3 -33 -29 -33 -16 0 -32 6 -34 13 -3 7 -6 6 -6 -5 -1 -10 -12 -19
-28 -22 -16 -2 0 -3 35 -2 62 2 82 -6 40 -18 -66 -17 -139 1 -120 30 19 29 91
46 93 22 0 -10 2 -10 6 0 2 6 9 12 14 12 6 0 7 -4 4 -10 -3 -5 -1 -10 4 -10
18 0 12 19 -10 30 -19 11 -40 9 -91 -6 -14 -4 -18 1 -18 25 0 25 5 32 28 37
15 3 32 7 37 9 17 6 49 -6 63 -23z m-458 -44 c0 16 28 15 59 -2 22 -12 20 -13
-30 -13 -60 -1 -78 5 -58 18 8 5 17 3 21 -4 6 -9 8 -9 8 1z m90 -43 c-16 -19
-103 -20 -119 -1 -9 11 -2 12 38 8 27 -2 57 0 67 6 24 13 31 7 14 -13z m-1370
-433 l85 -133 5 133 c4 116 7 133 23 136 16 3 17 -11 17 -178 0 -180 0 -181
-22 -178 -15 2 -44 41 -104 137 -45 73 -87 138 -93 144 -8 8 -11 -31 -11 -136
0 -140 -1 -147 -20 -147 -19 0 -20 7 -20 181 l0 180 27 -3 c23 -2 41 -24 113
-136z m310 -42 c0 -173 -1 -180 -20 -180 -19 0 -20 7 -20 180 0 173 1 180 20
180 19 0 20 -7 20 -180z m178 96 l3 -78 75 81 c44 47 84 81 95 81 10 0 19 -3
19 -7 0 -5 -33 -44 -74 -88 l-73 -80 85 -92 c73 -80 81 -93 61 -93 -16 0 -50
26 -106 82 l-83 83 0 -83 c0 -81 0 -82 -25 -82 l-25 0 0 173 c0 96 3 177 7
181 4 4 14 5 23 4 12 -3 16 -20 18 -82z m497 -83 c32 -93 60 -174 63 -181 3
-10 -2 -13 -18 -10 -16 2 -27 16 -40 48 l-18 45 -75 3 -75 3 -17 -51 c-12 -37
-22 -50 -36 -50 -10 0 -19 4 -19 9 0 7 62 188 115 339 2 6 17 12 33 12 29 0
30 -3 87 -167z m205 92 l0 -75 90 0 89 0 3 73 c3 64 5 72 23 72 19 0 20 -8 23
-177 l2 -178 -25 0 c-25 0 -25 0 -25 90 l0 90 -90 0 -90 0 0 -90 c0 -83 -1
-90 -20 -90 -19 0 -20 7 -20 180 0 173 1 180 20 180 18 0 20 -7 20 -75z m545
60 c56 -23 70 -77 31 -122 l-24 -28 29 -17 c33 -20 44 -53 35 -104 -11 -56
-51 -74 -163 -74 l-93 0 0 180 0 180 75 0 c44 0 90 -6 110 -15z m330 -2 c19
-52 115 -331 115 -337 0 -4 -10 -6 -22 -4 -17 2 -26 15 -37 51 l-15 47 -76 0
-76 0 -15 -47 c-11 -36 -20 -49 -37 -51 -12 -2 -22 -1 -22 1 0 3 28 84 61 181
60 171 62 176 89 176 17 0 30 -7 35 -17z m262 -68 c26 -46 50 -84 53 -84 3 0
26 37 51 82 32 58 52 83 68 85 11 2 21 1 21 -1 0 -2 -27 -52 -60 -110 -58
-102 -60 -109 -60 -177 0 -63 -2 -70 -20 -70 -18 0 -20 7 -20 69 0 66 -3 74
-55 165 -71 122 -72 126 -47 126 15 0 33 -22 69 -85z"/>
<path d="M2140 4279 c0 -5 5 -7 10 -4 6 3 10 8 10 11 0 2 -4 4 -10 4 -5 0 -10
-5 -10 -11z"/>
<path d="M2307 4274 c7 -3 9 -13 6 -22 -6 -15 -5 -15 10 -3 19 15 14 31 -11
30 -10 0 -12 -3 -5 -5z"/>
<path d="M2161 4254 c0 -11 3 -14 6 -6 3 7 2 16 -1 19 -3 4 -6 -2 -5 -13z"/>
<path d="M2147 4229 c7 -7 15 -10 18 -7 3 3 -2 9 -12 12 -14 6 -15 5 -6 -5z"/>
<path d="M2680 4065 c0 -9 6 -12 15 -9 8 4 12 10 9 15 -8 14 -24 10 -24 -6z"/>
<path d="M2622 4048 c-15 -15 -16 -38 -1 -38 5 0 7 5 4 10 -4 6 -1 17 5 25 15
18 9 20 -8 3z"/>
<path d="M2610 3979 c0 -12 5 -19 12 -17 18 6 20 25 3 31 -10 5 -15 0 -15 -14z"/>
<path d="M2795 3990 c-3 -5 -1 -10 4 -10 6 0 11 5 11 10 0 6 -2 10 -4 10 -3 0
-8 -4 -11 -10z"/>
<path d="M2463 3837 c-13 -316 -14 -437 -6 -437 9 0 29 350 25 434 -2 47 -17
49 -19 3z"/>
<path d="M2197 3740 c7 -109 6 -450 -1 -457 -2 -2 -33 0 -69 5 -50 6 -64 5
-60 -4 4 -11 -100 -94 -119 -94 -8 0 -15 13 -34 65 -6 18 -8 18 -11 2 -3 -9 5
-37 16 -60 12 -24 21 -62 21 -85 l0 -42 -39 0 c-22 0 -43 -5 -46 -11 -5 -7 11
-9 47 -7 l53 3 3 62 c2 53 6 65 25 74 12 7 41 27 64 45 36 30 49 34 97 34 52
0 57 2 67 28 13 33 5 459 -10 512 -8 26 -8 7 -4 -70z"/>
<path d="M1875 3810 c3 -14 9 -128 13 -255 4 -158 8 -213 13 -175 18 140 4
398 -23 440 -7 11 -8 8 -3 -10z"/>
<path d="M2160 3770 c0 -5 5 -10 10 -10 6 0 10 5 10 10 0 6 -4 10 -10 10 -5 0
-10 -4 -10 -10z"/>
<path d="M2534 3695 c15 -161 28 -272 36 -300 16 -60 11 54 -10 209 -21 155
-38 213 -26 91z"/>
<path d="M2791 3674 c0 -11 3 -14 6 -6 3 7 2 16 -1 19 -3 4 -6 -2 -5 -13z"/>
<path d="M2834 3570 c0 -69 1 -97 3 -62 2 34 2 90 0 125 -2 34 -3 6 -3 -63z"/>
<path d="M2165 3670 c-3 -5 -1 -10 4 -10 6 0 11 5 11 10 0 6 -2 10 -4 10 -3 0
-8 -4 -11 -10z"/>
<path d="M2491 3625 c-1 -27 -4 -75 -7 -105 -4 -40 -3 -51 5 -40 16 23 23 111
13 155 l-10 40 -1 -50z"/>
<path d="M2797 3523 c5 -106 4 -113 -13 -113 -21 0 -206 -71 -200 -77 2 -2 55
15 117 37 l115 41 -8 97 c-11 138 -18 147 -11 15z"/>
<path d="M2170 3461 c0 -6 5 -13 10 -16 6 -3 10 1 10 9 0 9 -4 16 -10 16 -5 0
-10 -4 -10 -9z"/>
<path d="M1790 3412 c0 -27 30 -102 36 -87 2 6 -5 33 -16 60 -12 33 -19 42
-20 27z"/>
<path d="M2277 3360 c-3 -41 -9 -86 -13 -99 -5 -16 -4 -22 3 -18 19 12 34 99
25 147 l-8 45 -7 -75z"/>
<path d="M2489 3341 c24 -22 56 -28 65 -12 4 5 -3 7 -13 4 -10 -3 -32 3 -47
12 l-29 17 24 -21z"/>
<path d="M2800 3269 c-19 -5 -75 -13 -124 -19 -50 -6 -92 -13 -95 -16 -3 -3
-4 -50 -3 -105 2 -54 2 -99 -1 -99 -2 0 -21 7 -41 15 -20 8 -36 13 -36 11 0
-10 70 -37 79 -31 7 4 11 47 11 104 l0 99 103 13 c56 7 110 13 120 13 9 0 17
3 17 7 0 4 8 10 18 12 11 3 12 5 2 5 -8 0 -31 -4 -50 -9z"/>
<path d="M2212 3248 c-1 -10 -16 -21 -34 -27 l-33 -9 31 -1 30 -1 -3 -62 c-2
-35 -8 -99 -13 -142 -9 -69 -8 -82 7 -98 30 -33 183 -65 183 -38 0 6 -19 10
-42 10 -44 0 -103 13 -126 28 -11 7 -11 25 -2 93 6 46 9 125 8 174 -2 50 -5
82 -6 73z"/>
<path d="M2050 3220 c0 -12 34 -12 70 0 20 7 16 8 -22 9 -27 1 -48 -3 -48 -9z"/>
<path d="M2493 3210 c-24 -11 -43 -24 -43 -29 0 -7 77 28 99 46 11 9 -18 0
-56 -17z"/>
<path d="M2304 1622 c17 -17 39 -32 50 -32 17 0 16 3 -9 16 -16 8 -39 23 -50
32 -11 9 -7 2 9 -16z"/>
<path d="M1860 1656 c0 -2 9 -6 20 -9 11 -3 20 -1 20 4 0 5 -9 9 -20 9 -11 0
-20 -2 -20 -4z"/>
<path d="M1858 1623 c6 -2 18 -2 25 0 6 3 1 5 -13 5 -14 0 -19 -2 -12 -5z"/>
<path d="M2980 1630 c0 -5 5 -10 11 -10 5 0 7 5 4 10 -3 6 -8 10 -11 10 -2 0
-4 -4 -4 -10z"/>
<path d="M2196 1193 c-14 -43 -26 -84 -26 -91 0 -8 19 -12 61 -12 45 0 60 3
57 13 -3 6 -15 44 -28 82 -12 39 -26 74 -30 78 -4 5 -20 -27 -34 -70z"/>
<path d="M2920 1225 l0 -55 63 0 c71 0 87 10 87 55 0 45 -16 55 -87 55 l-63 0
0 -55z"/>
<path d="M2922 1063 l3 -68 69 1 c59 1 72 4 88 23 24 30 23 66 -2 91 -16 16
-33 20 -90 20 l-71 0 3 -67z"/>
<path d="M3327 1187 c-15 -46 -27 -86 -27 -90 0 -4 27 -7 60 -7 33 0 60 3 60
7 0 16 -55 173 -60 173 -3 0 -18 -37 -33 -83z"/>
</g>
</svg>
