<svg width="278" height="308" viewBox="0 0 278 308" fill="none" xmlns="http://www.w3.org/2000/svg">
<path d="M160.558 107.136C163.74 104.86 167.011 102.829 170.313 101.042C176.823 97.5267 183.537 94.9225 190.261 93.1986C196.641 91.558 203.141 90.6882 209.578 90.5736C216.172 90.4538 222.604 91.1257 228.693 92.5475C234.818 93.9746 240.693 96.1986 246.172 99.1882C251.474 102.074 256.302 105.647 260.5 109.855C266.323 115.714 270.969 122.824 273.959 131.068C276.62 138.37 277.985 146.589 277.745 155.594C277.797 156.115 277.787 156.636 277.709 157.167C275.615 203.959 245.349 228.105 210.677 253.12C210.495 253.256 210.302 253.381 210.104 253.506C194.021 265.105 177.709 276.938 164.828 291.318C161.698 294.813 155.584 295.605 151.167 293.079C150.078 292.454 149.198 291.683 148.526 290.829V290.834C146.219 287.876 143.766 284.99 141.193 282.173C165.506 263.558 183.99 243.699 185.782 209.829C185.995 208.386 186 207.876 185.881 206.6C185.969 199.079 184.828 191.584 182.25 184.506C179.433 176.73 174.979 169.73 169.157 163.876C165.11 159.818 160.485 156.391 155.469 153.662C150.365 150.876 144.886 148.808 139.224 147.485C133.542 146.162 127.703 145.579 121.881 145.688C116.063 145.792 110.266 146.579 104.625 148.032C98.7087 149.548 92.9847 151.782 87.5837 154.636C82.4639 151.438 76.9743 148.86 71.2243 146.985L69.7191 146.495L69.5941 146.48C64.4639 144.938 59.167 143.949 53.8232 143.574C49.2399 143.261 44.6305 143.386 40.0732 143.975C40.891 136.912 42.766 130.402 45.5107 124.527C49.2295 116.537 54.5368 109.662 60.9587 104.11C65.4118 100.256 70.4535 96.9903 75.9639 94.3757C81.5107 91.7455 87.4326 89.8236 93.5628 88.683C93.8701 88.6257 94.167 88.584 94.4795 88.5475C100.526 87.485 106.761 87.1569 113.032 87.5892C119.375 88.0319 125.849 89.2819 132.308 91.3757L132.344 91.3913L132.349 91.3809C138.839 93.4903 145.24 96.4903 151.386 100.417C154.521 102.417 157.578 104.657 160.558 107.136Z" fill="black" fill-opacity="0.7"/>
<path d="M86.9422 172.411C89.2287 170.771 91.5724 169.312 93.9474 168.031C98.6245 165.505 103.447 163.635 108.27 162.396C112.859 161.213 117.526 160.594 122.151 160.51C126.89 160.427 131.51 160.906 135.885 161.927C140.281 162.953 144.505 164.557 148.437 166.698C152.244 168.771 155.713 171.338 158.729 174.365C162.916 178.568 166.244 183.677 168.395 189.594C170.302 194.844 171.286 200.745 171.114 207.219C171.151 207.583 171.14 207.958 171.083 208.338C169.583 241.953 147.843 259.297 122.942 277.266C122.812 277.359 122.671 277.453 122.531 277.542C110.984 285.87 99.2599 294.375 90.0047 304.703C87.7599 307.213 83.3641 307.781 80.1974 305.969C79.4162 305.516 78.7808 304.963 78.3016 304.349L78.2964 304.354C69.9266 293.599 58.812 284.255 47.8433 275.031C24.1974 255.156 -1.1411 235.776 0.108902 202.724C0.353694 196.156 1.84328 190.172 4.30161 184.901C6.97349 179.167 10.786 174.224 15.4006 170.234C18.5985 167.463 22.2235 165.12 26.1766 163.245C30.161 161.354 34.4214 159.969 38.8172 159.151C39.0412 159.115 39.2547 159.078 39.4787 159.057C43.8277 158.297 48.3016 158.057 52.8068 158.37C57.3641 158.682 62.0152 159.578 66.6506 161.088L66.6766 161.099V161.088C71.3381 162.609 75.937 164.76 80.3537 167.578C82.6037 169.016 84.8016 170.625 86.9422 172.411Z" fill="black"/>
<path d="M40.2967 43.244C41.3956 42.9367 42.4894 42.7023 43.5727 42.5409C45.7029 42.2232 47.8019 42.1763 49.8123 42.3742C51.7237 42.5565 53.5883 42.9628 55.3644 43.5721C57.1873 44.1971 58.8852 45.0201 60.4164 46.0096C61.9529 47.0148 63.3435 48.2128 64.5519 49.5721C65.7237 50.8898 66.6925 52.3534 67.4321 53.9211C68.4529 56.1086 69.0258 58.5201 69.0362 61.0774C69.0467 63.343 68.6092 65.7284 67.656 68.1763C67.6196 68.3221 67.5675 68.4628 67.4946 68.6034C62.3175 81.2232 51.6456 84.8378 39.6769 88.2492C39.6144 88.2648 39.5467 88.2805 39.4789 88.2961C33.9321 89.8794 28.2914 91.4992 23.3487 94.1607C22.1404 94.8117 20.3904 94.4211 19.4269 93.2857C19.1925 93.0096 19.0258 92.7128 18.9269 92.4055V92.4107C17.2029 87.1451 14.2394 82.0409 11.3175 77.0044C5.0154 66.1451 -2.00543 55.2388 2.99978 42.7961C3.99457 40.3221 5.37999 38.244 7.04144 36.5721C8.84874 34.7544 10.9789 33.3951 13.2914 32.5096C14.8852 31.8951 16.5935 31.5044 18.3592 31.3326C20.1404 31.1607 21.9529 31.2232 23.7446 31.5253C23.8331 31.5357 23.9217 31.5565 24.0102 31.5773C25.7706 31.8898 27.5154 32.4159 29.1925 33.1555C30.8852 33.9107 32.5362 34.8951 34.1039 36.1086L34.1092 36.119H34.1144C35.6821 37.343 37.1456 38.8013 38.4425 40.4888C39.1039 41.3482 39.7289 42.2648 40.2967 43.244Z" fill="black" fill-opacity="0.5"/>
<mask id="mask0_655_565" style="mask-type:luminance" maskUnits="userSpaceOnUse" x="60" y="0" width="36" height="33">
<path d="M60.667 0H95.3337V32.6667H60.667V0Z" fill="white"/>
</mask>
<g mask="url(#mask0_655_565)">
<path d="M75.3699 6.18155C74.8178 6.0253 74.2709 5.91072 73.7293 5.8326C72.6668 5.67114 71.6147 5.6503 70.6095 5.74926C69.6563 5.8378 68.7241 6.04093 67.8334 6.34822C66.922 6.66072 66.073 7.07218 65.3126 7.56697C64.5418 8.06697 63.8438 8.66593 63.2397 9.34822C62.6563 10.0045 62.172 10.7336 61.8022 11.5201C61.2918 12.6138 61.0053 13.8222 61.0001 15.0982C60.9949 16.2336 61.2136 17.4263 61.6876 18.6503C61.7084 18.718 61.7345 18.7909 61.7709 18.8586C64.3595 25.1711 69.698 26.9784 75.6772 28.6816C75.7084 28.692 75.7449 28.6972 75.7761 28.7076C78.5522 29.4993 81.3699 30.3066 83.8438 31.6399C84.4428 31.9628 85.323 31.7701 85.8022 31.2024C85.922 31.067 86.0053 30.9159 86.0522 30.7649H86.0574C86.9168 28.1347 88.3959 25.5826 89.8595 23.0618C93.0105 17.6295 96.5157 12.1816 94.0157 5.9576C93.5209 4.72322 92.823 3.68155 91.9949 2.84822C91.0938 1.93676 90.0261 1.25968 88.8699 0.816971C88.073 0.509679 87.2188 0.311763 86.3386 0.22843C85.448 0.145096 84.5418 0.171137 83.6459 0.32218C83.5991 0.327388 83.5574 0.337804 83.5105 0.348221C82.6303 0.504471 81.7605 0.770096 80.922 1.13989C80.073 1.51489 79.2449 2.00968 78.4688 2.61905H78.4636C77.672 3.23364 76.9428 3.9628 76.297 4.80135C75.9636 5.23364 75.6563 5.69197 75.3699 6.18155Z" fill="black" fill-opacity="0.4"/>
</g>
</svg>
