<svg width="308" height="308" viewBox="0 0 308 308" fill="none" xmlns="http://www.w3.org/2000/svg">
<mask id="mask0_655_572" style="mask-type:luminance" maskUnits="userSpaceOnUse" x="0" y="0" width="308" height="308">
<path d="M0 0H308V308H0V0Z" fill="white"/>
</mask>
<g mask="url(#mask0_655_572)">
<path d="M154 0C69.0833 0 0 69.0833 0 154C0 238.917 69.0833 308 154 308C238.917 308 308 238.917 308 154C308 69.0833 238.917 0 154 0ZM243.693 128.896L229.745 210.172C228.948 214.792 224.943 218.167 220.26 218.167H87.7396C83.0573 218.167 79.0521 214.792 78.2552 210.172L64.3073 128.896C63.6927 125.344 65.1302 121.74 68.0156 119.568C70.9167 117.385 74.7552 117.042 78.0156 118.62L115.151 136.703L145.594 81.9427C148.984 75.8177 159.031 75.8177 162.417 81.9427L192.859 136.703L230 118.62C233.245 117.042 237.094 117.385 239.995 119.568C242.87 121.74 244.307 125.344 243.693 128.896Z" fill="black"/>
</g>
</svg>
