<svg width="734" height="734" viewBox="0 0 734 734" fill="none" xmlns="http://www.w3.org/2000/svg">
<path fill-rule="evenodd" clip-rule="evenodd" d="M667.233 242.667C706.8 271.167 733.666 315.334 733.666 367.001C733.666 418.667 706.8 462.867 667.233 491.334C675.233 539.401 662.766 589.934 626.333 626.334C589.833 662.834 539.333 674.967 491.466 667.167C463.1 706.867 418.533 733.667 367 733.667C315.333 733.667 271.066 706.767 242.633 667.134C194.7 674.967 144.166 662.867 107.633 626.334C71.133 589.834 58.9997 539.301 67.0663 491.334C27.533 462.901 0.333008 418.701 0.333008 367.001C0.333008 315.301 27.533 271.067 67.0663 242.667C58.9997 194.701 71.133 144.167 107.666 107.667C144.1 71.2006 194.666 58.7673 242.9 66.7673C271.166 27.134 315.433 0.333984 367 0.333984C418.5 0.333984 463 27.1006 491.4 66.7673C539.466 58.7673 589.933 71.2673 626.333 107.667C662.766 144.067 675.266 194.601 667.233 242.667ZM519.7 239.867C523.263 242.41 526.291 245.63 528.61 249.344C530.929 253.057 532.493 257.191 533.215 261.509C533.936 265.827 533.799 270.244 532.813 274.51C531.827 278.775 530.01 282.804 527.466 286.367L360.8 519.701C357.986 523.641 354.348 526.922 350.138 529.313C345.929 531.705 341.248 533.151 336.423 533.551C331.598 533.951 326.743 533.295 322.197 531.628C317.651 529.961 313.523 527.325 310.1 523.901L210.1 423.901C204.028 417.614 200.668 409.194 200.744 400.454C200.82 391.714 204.325 383.354 210.506 377.173C216.686 370.993 225.046 367.487 233.786 367.412C242.526 367.336 250.946 370.695 257.233 376.767L329.4 448.934L473.2 247.601C478.341 240.409 486.128 235.554 494.848 234.104C503.568 232.654 512.508 234.727 519.7 239.867Z" fill="#3E8FE7"/>
</svg>
