<svg width="304" height="136" viewBox="0 0 304 136" fill="none" xmlns="http://www.w3.org/2000/svg">
<path d="M265.469 35.8848H119.547C121.38 38.666 123 41.5723 124.406 44.5931C125.818 47.6087 127 50.7181 127.958 53.9108C128.911 57.1035 129.635 60.3483 130.12 63.6452C130.604 66.9421 130.844 70.2598 130.849 73.5879C130.849 76.9212 130.609 80.2389 130.13 83.5358C129.651 86.8327 128.932 90.0775 127.979 93.2754C127.026 96.4681 125.849 99.5775 124.443 102.598C123.036 105.619 121.422 108.525 119.594 111.312H265.469C286.302 111.312 303.182 94.4264 303.182 73.5983C303.182 52.765 286.302 35.8848 265.469 35.8848Z" fill="#3E8FE7"/>
<path d="M150.87 77.7038L156.005 60.6621H161.203L153.313 83.3236H148.438L140.578 60.6621H145.76L150.87 77.7038Z" fill="white"/>
<path d="M178.568 73.4694H169.599V79.5736H180.12V83.3236H164.933V60.6621H180.089V64.4434H169.599V69.8444H178.568V73.4694Z" fill="white"/>
<path d="M192.844 75.0267H189.125V83.3236H184.453V60.6621H192.875C195.552 60.6621 197.62 61.2559 199.073 62.4538C200.526 63.6465 201.25 65.3288 201.25 67.5111C201.25 69.0579 200.917 70.3444 200.245 71.3757C199.578 72.4121 198.563 73.235 197.203 73.8444L202.109 83.1048V83.3236H197.094L192.844 75.0267ZM189.125 71.2454H192.891C194.062 71.2454 194.974 70.9486 195.615 70.3496C196.26 69.7559 196.583 68.9329 196.583 67.8861C196.583 66.8132 196.276 65.9746 195.672 65.36C195.063 64.7507 194.13 64.4434 192.875 64.4434H189.125V71.2454Z" fill="white"/>
<path d="M206.688 60.6621H211.359V83.3236H206.688V60.6621Z" fill="white"/>
<path d="M230.917 74.0632H221.948V83.3236H217.281V60.6621H232.036V64.4434H221.948V70.2975H230.917V74.0632Z" fill="white"/>
<path d="M236.636 60.6621H241.302V83.3236H236.636V60.6621Z" fill="white"/>
<path d="M260.859 73.4694H251.896V79.5736H262.416V83.3236H247.224V60.6621H262.385V64.4434H251.896V69.8444H260.859V73.4694Z" fill="white"/>
<path d="M266.75 83.3231V60.6617H273.724C275.625 60.6304 277.411 61.0784 279.068 62.0054C280.672 62.9221 281.901 64.1981 282.75 65.8388C283.635 67.4898 284.073 69.37 284.073 71.4794V72.5211C284.073 74.6304 283.641 76.5002 282.776 78.1409C281.927 79.7763 280.708 81.0471 279.109 81.9534C277.453 82.8856 275.672 83.344 273.771 83.3231H266.75ZM271.422 64.4429V79.5731H273.677C275.505 79.5731 276.901 78.9742 277.865 77.7815C278.828 76.5888 279.323 74.8804 279.344 72.6617V71.4638C279.344 69.1617 278.865 67.4117 277.911 66.2242C276.958 65.0367 275.562 64.4429 273.724 64.4429H271.422Z" fill="white"/>
<path d="M62.0469 12.1252C60.8698 12.1252 59.6979 12.1617 58.526 12.2294C57.3542 12.2919 56.1823 12.396 55.0156 12.5315C53.849 12.6617 52.6875 12.8335 51.5313 13.0315C50.375 13.2346 49.224 13.4637 48.0781 13.7346C46.9375 14.0002 45.8021 14.2971 44.6719 14.6304C43.5469 14.9637 42.4323 15.3283 41.3229 15.7242C40.2187 16.1148 39.125 16.5419 38.0469 17.0002C36.9635 17.4585 35.8958 17.9481 34.8438 18.469C33.7917 18.9898 32.75 19.5367 31.7292 20.1148C30.7083 20.6981 29.7031 21.3023 28.7188 21.9377C27.7292 22.5783 26.7604 23.2398 25.8125 23.9325C24.8646 24.6252 23.9323 25.344 23.026 26.0887C22.1198 26.8335 21.2344 27.6044 20.3698 28.4012C19.5052 29.1929 18.6667 30.0158 17.849 30.8596C17.0313 31.7033 16.2396 32.5679 15.474 33.4585C14.7083 34.3492 13.9635 35.2606 13.25 36.1877C12.5365 37.12 11.849 38.0731 11.1875 39.0419C10.526 40.0158 9.89583 41.0054 9.29167 42.0106C8.6875 43.021 8.11458 44.0419 7.56771 45.0835C7.02083 46.1252 6.50521 47.1773 6.02083 48.2502C5.53646 49.3179 5.08333 50.4012 4.66146 51.495C4.23958 52.594 3.84896 53.6981 3.48958 54.8179C3.13021 55.9377 2.80208 57.0627 2.50521 58.1981C2.21354 59.3387 1.95312 60.4794 1.72396 61.6356C1.49479 62.7867 1.29688 63.9429 1.13542 65.1044C0.96875 66.271 0.843749 67.4377 0.744792 68.6044C0.651041 69.7762 0.588541 70.9481 0.557292 72.1252C0.53125 73.2971 0.536458 74.469 0.572917 75.646C0.609374 76.8179 0.682292 77.9898 0.786458 79.1617C0.895833 80.3283 1.03125 81.495 1.20312 82.6565C1.38021 83.8179 1.58333 84.9742 1.82292 86.1252C2.0625 87.2762 2.33333 88.4169 2.63542 89.5523C2.9375 90.6877 3.27604 91.8127 3.64583 92.9273C4.01042 94.0419 4.41146 95.146 4.84375 96.2398C5.27604 97.3283 5.73958 98.4065 6.22917 99.4742C6.72396 100.542 7.25 101.589 7.80208 102.625C8.35417 103.662 8.9375 104.682 9.55208 105.682C10.1615 106.688 10.8021 107.672 11.4688 108.636C12.1406 109.604 12.8333 110.547 13.5573 111.474C14.2813 112.401 15.0313 113.302 15.8021 114.188C16.5781 115.068 17.375 115.932 18.1979 116.766C19.026 117.604 19.8698 118.417 20.7396 119.209C21.6094 119.995 22.5052 120.761 23.4167 121.495C24.3333 122.235 25.2656 122.943 26.2188 123.63C27.1771 124.313 28.1458 124.969 29.1406 125.599C30.1302 126.224 31.1406 126.823 32.1667 127.396C33.1927 127.964 34.2396 128.505 35.2969 129.016C36.3542 129.526 37.4219 130.005 38.5104 130.459C39.5938 130.906 40.6927 131.323 41.8021 131.714C42.9063 132.099 44.026 132.453 45.1563 132.776C46.2865 133.099 47.4219 133.386 48.5677 133.646C49.7135 133.901 50.8698 134.125 52.026 134.318C53.1875 134.511 54.349 134.667 55.5156 134.792C56.6823 134.917 57.8542 135.005 59.026 135.068C60.2031 135.125 61.375 135.146 62.5469 135.136C63.724 135.125 64.8958 135.084 66.0677 135.005C67.2396 134.932 68.4115 134.823 69.5729 134.677C70.7396 134.531 71.901 134.354 73.0573 134.146C74.2135 133.938 75.3594 133.693 76.5 133.417C77.6458 133.141 78.776 132.834 79.901 132.49C81.026 132.151 82.1354 131.776 83.2396 131.37C84.3438 130.969 85.4323 130.531 86.5104 130.063C87.5885 129.599 88.651 129.099 89.6979 128.573C90.75 128.042 91.7813 127.485 92.8021 126.901C93.8177 126.313 94.8177 125.698 95.7969 125.052C96.7813 124.406 97.7448 123.735 98.6875 123.037C99.6302 122.334 100.552 121.61 101.453 120.86C102.354 120.104 103.234 119.328 104.094 118.526C104.948 117.719 105.781 116.896 106.594 116.042C107.401 115.193 108.188 114.318 108.948 113.427C109.708 112.531 110.438 111.615 111.146 110.677C111.854 109.74 112.536 108.781 113.188 107.802C113.839 106.828 114.464 105.834 115.057 104.823C115.656 103.807 116.219 102.781 116.755 101.735C117.292 100.693 117.802 99.6304 118.276 98.5575C118.75 97.4846 119.198 96.396 119.609 95.2971C120.026 94.1981 120.406 93.0887 120.755 91.969C121.104 90.8492 121.422 89.719 121.708 88.5783C121.995 87.4377 122.25 86.2919 122.469 85.1408C122.688 83.9846 122.875 82.8231 123.026 81.6617C123.182 80.495 123.302 79.3283 123.385 78.1565C123.474 76.9846 123.526 75.8127 123.547 74.6408C123.563 73.4637 123.547 72.2919 123.5 71.12C123.453 69.9429 123.37 68.771 123.255 67.6044C123.141 66.4377 122.995 65.271 122.813 64.1096C122.63 62.9481 122.417 61.7971 122.167 60.646C121.917 59.5002 121.641 58.3596 121.323 57.2294C121.01 56.094 120.667 54.9742 120.286 53.8648C119.911 52.7502 119.5 51.6512 119.063 50.5627C118.62 49.4742 118.151 48.396 117.646 47.3335C117.146 46.2762 116.615 45.2294 116.052 44.1981C115.49 43.1669 114.896 42.1512 114.276 41.1512C113.656 40.1565 113.01 39.1773 112.333 38.219C111.656 37.2554 110.953 36.3179 110.224 35.396C109.495 34.4742 108.74 33.5783 107.958 32.7033C107.172 31.8231 106.37 30.9742 105.536 30.1408C102.688 27.2762 99.5885 24.719 96.2292 22.469C92.875 20.219 89.3281 18.3231 85.599 16.7762C81.8646 15.2294 78.0156 14.0679 74.0521 13.2815C70.0885 12.5002 66.0885 12.1148 62.0469 12.1252Z" fill="#3E8FE7"/>
<mask id="mask0_652_33" style="mask-type:luminance" maskUnits="userSpaceOnUse" x="22" y="0" width="119" height="107">
<path d="M22 0H140.667V107H22V0Z" fill="white"/>
</mask>
<g mask="url(#mask0_652_33)">
<g filter="url(#filter0_di_652_33)">
<path d="M22.625 72.6569L26.6562 74.9173C35.0729 79.6413 50.7656 93.3757 56.2448 101.318L59.8125 106.48L61.6042 102.782C68.625 88.2871 140.172 30.1829 140.172 30.1829L121.062 0.00585938C121.062 0.00585938 63.5625 70.5215 59 83.2454L58.1719 85.5527L52.125 78.1413C48.349 73.5163 33.2031 65.4017 28.2812 68.7767L22.625 72.6569Z" fill="white"/>
</g>
</g>
<defs>
<filter id="filter0_di_652_33" x="15.625" y="-1.99414" width="131.547" height="120.475" filterUnits="userSpaceOnUse" color-interpolation-filters="sRGB">
<feFlood flood-opacity="0" result="BackgroundImageFix"/>
<feColorMatrix in="SourceAlpha" type="matrix" values="0 0 0 0 0 0 0 0 0 0 0 0 0 0 0 0 0 0 127 0" result="hardAlpha"/>
<feOffset dy="5"/>
<feGaussianBlur stdDeviation="3.5"/>
<feComposite in2="hardAlpha" operator="out"/>
<feColorMatrix type="matrix" values="0 0 0 0 0 0 0 0 0 0 0 0 0 0 0 0 0 0 0.25 0"/>
<feBlend mode="normal" in2="BackgroundImageFix" result="effect1_dropShadow_652_33"/>
<feBlend mode="normal" in="SourceGraphic" in2="effect1_dropShadow_652_33" result="shape"/>
<feColorMatrix in="SourceAlpha" type="matrix" values="0 0 0 0 0 0 0 0 0 0 0 0 0 0 0 0 0 0 127 0" result="hardAlpha"/>
<feOffset dy="4"/>
<feGaussianBlur stdDeviation="5"/>
<feComposite in2="hardAlpha" operator="arithmetic" k2="-1" k3="1"/>
<feColorMatrix type="matrix" values="0 0 0 0 0 0 0 0 0 0 0 0 0 0 0 0 0 0 0.25 0"/>
<feBlend mode="normal" in2="shape" result="effect2_innerShadow_652_33"/>
</filter>
</defs>
</svg>
