<svg width="219" height="245" viewBox="0 0 219 245" fill="none" xmlns="http://www.w3.org/2000/svg">
<mask id="mask0_655_618" style="mask-type:luminance" maskUnits="userSpaceOnUse" x="0" y="148" width="208" height="85">
<path d="M0 148.334H207.333V232.334H0V148.334Z" fill="white"/>
</mask>
<g mask="url(#mask0_655_618)">
<path fill-rule="evenodd" clip-rule="evenodd" d="M26.7135 178.5C16.2865 188.078 7.61979 199.641 1.35417 212.615H1.33854C1.29167 212.709 1.25 212.807 1.20833 212.901C0.385416 214.719 0 216.615 0 218.474C0 221.011 0.739583 223.505 2.07292 225.651C3.42187 227.823 5.35417 229.62 7.72396 230.75C9.47396 231.578 11.4479 232.057 13.5729 232.057H192.797C194.911 232.057 196.885 231.584 198.641 230.75C201.01 229.62 202.953 227.839 204.302 225.682C205.635 223.547 206.385 221.047 206.385 218.464H206.359C206.359 216.474 205.948 214.474 205.042 212.589L205.047 212.584C204.974 212.432 204.901 212.287 204.818 212.146C198.641 199.485 190.057 188.182 179.693 178.776C137.224 140.25 69.25 139.417 26.7135 178.5Z" fill="#797979"/>
</g>
<path fill-rule="evenodd" clip-rule="evenodd" d="M72.6982 110.234H133.688V153.693L103.115 192.932L72.6982 153.693V110.234Z" fill="#C1C1C2"/>
<path fill-rule="evenodd" clip-rule="evenodd" d="M49.8174 97.291C54.8747 97.291 59.0049 90.8066 59.0049 82.8535C59.0049 74.9004 54.8747 68.416 49.8174 68.416C44.7601 68.416 40.6299 74.9004 40.6299 82.8535C40.6299 90.8066 44.7601 97.291 49.8174 97.291Z" fill="#C1C1C2"/>
<path fill-rule="evenodd" clip-rule="evenodd" d="M156.573 97.291C161.625 97.291 165.755 90.8066 165.755 82.8535C165.755 74.9004 161.625 68.416 156.573 68.416C151.51 68.416 147.38 74.9004 147.38 82.8535C147.38 90.8066 151.51 97.291 156.573 97.291Z" fill="#C1C1C2"/>
<path fill-rule="evenodd" clip-rule="evenodd" d="M103.193 144.635C134.333 144.635 159.734 116.156 159.734 81.2292C159.734 46.3073 134.333 17.8281 103.193 17.8281C72.0521 17.8281 46.6562 46.3073 46.6562 81.2292C46.6562 116.156 72.0521 144.635 103.193 144.635Z" fill="#E6E6E7"/>
<path fill-rule="evenodd" clip-rule="evenodd" d="M156.047 87.3965L150.537 87.2142V75.5579C150.537 75.5579 147.682 57.6152 136.667 57.6152L96.4741 57.4329C96.4741 57.4329 83.4168 56.136 74.8491 39.1152C74.8491 39.1152 69.1355 37.0788 65.6668 56.3183C65.6668 56.3183 54.448 68.5319 55.6668 87.0267L49.2397 87.584C37.2814 55.4225 35.7137 1.74021 88.7189 2.39646C88.7189 2.39646 118.302 -4.81708 140.13 7.20375C140.13 7.20375 184.505 19.7871 156.047 87.3965Z" fill="#202020"/>
<mask id="mask1_655_618" style="mask-type:luminance" maskUnits="userSpaceOnUse" x="169" y="195" width="50" height="50">
<path d="M169 195H219V245H169V195Z" fill="white"/>
</mask>
<g mask="url(#mask1_655_618)">
<path d="M211.695 202.537C207.179 198.036 200.94 195.254 194.049 195.254C187.155 195.254 180.916 198.036 176.401 202.537C171.885 207.039 169.091 213.257 169.091 220.128C169.091 226.996 171.885 233.214 176.401 237.716C180.916 242.217 187.155 244.999 194.049 244.999C200.94 244.999 207.179 242.217 211.695 237.716C216.213 233.214 219.005 226.996 219.005 220.128C219.005 213.257 216.213 207.039 211.695 202.537Z" fill="#9B9B9C" fill-opacity="0.72"/>
</g>
<path fill-rule="evenodd" clip-rule="evenodd" d="M174.927 219.152L174 220.001L174.927 220.848C181.05 226.43 187.317 229.072 193.724 228.999C200.099 228.925 206.492 226.153 212.903 220.896L214 220.001L212.903 219.104C206.492 213.849 200.099 211.075 193.724 211.001C187.317 210.928 181.05 213.573 174.927 219.152Z" fill="white"/>
<path fill-rule="evenodd" clip-rule="evenodd" d="M189.526 216.193C188.396 217.167 187.698 218.513 187.698 220.002C187.698 221.488 188.396 222.835 189.526 223.811C190.658 224.785 192.219 225.388 193.944 225.388C195.669 225.388 197.233 224.785 198.363 223.811C199.495 222.835 200.196 221.488 200.196 220.002C200.196 218.513 199.495 217.167 198.363 216.193C197.233 215.217 195.669 214.613 193.944 214.613C192.219 214.613 190.658 215.217 189.526 216.193Z" fill="#B3B4B4"/>
<path fill-rule="evenodd" clip-rule="evenodd" d="M191.544 217.929C190.928 218.459 190.55 219.192 190.55 220.001C190.55 220.81 190.928 221.54 191.544 222.07C192.158 222.6 193.008 222.928 193.944 222.928C194.883 222.928 195.734 222.6 196.347 222.07C196.963 221.54 197.342 220.81 197.342 220.001C197.342 219.192 196.963 218.459 196.347 217.929C195.734 217.399 194.883 217.072 193.944 217.072C193.008 217.072 192.158 217.399 191.544 217.929Z" fill="#414141"/>
<path fill-rule="evenodd" clip-rule="evenodd" d="M194.959 218.361C194.821 218.478 194.736 218.645 194.736 218.825C194.736 219.008 194.821 219.175 194.959 219.294C195.1 219.414 195.291 219.487 195.499 219.487C195.713 219.487 195.904 219.414 196.042 219.294C196.18 219.175 196.265 219.008 196.265 218.825C196.265 218.645 196.18 218.478 196.042 218.361C195.904 218.242 195.713 218.166 195.499 218.166C195.291 218.166 195.1 218.242 194.959 218.361Z" fill="#F3F4F4"/>
</svg>
